<?xml version="1.0" encoding="utf-8"?>
<!-- Generator: Adobe Illustrator 26.2.1, SVG Export Plug-In . SVG Version: 6.00 Build 0)  -->
<svg version="1.1" id="Шар_1" xmlns="http://www.w3.org/2000/svg" xmlns:xlink="http://www.w3.org/1999/xlink" x="0px" y="0px"
	 viewBox="0 0 44 40.5" style="enable-background:new 0 0 44 40.5;" xml:space="preserve">
<style type="text/css">
	.st0{fill:#E5255C;}
</style>
<polyline class="st0" points="2.4,9.8 2.4,15.1 10.9,28.9 22,38.1 28.6,33.1 40.7,19 42.4,10.5 39.3,4.2 34.4,2 28.6,3.4 22,9 
	18.6,2.7 12.4,2 8.4,2 2.4,8.6 "/>
<path d="M19.7,39.6l-2.9-2.8C12.3,32.5,8.3,28.3,5,24.4S0,16.3,0,12c0-3.4,1.1-6.2,3.3-8.5S8.3,0,11.6,0c1.9,0,3.7,0.5,5.6,1.4
	S20.6,3.8,22,6c1.6-2.1,3.3-3.6,5-4.6S30.5,0,32.5,0c3.3,0,6,1.1,8.2,3.4C42.9,5.7,44,8.6,44,12c0,4.3-1.7,8.4-5,12.4
	c-3.3,4-7.3,8.1-11.8,12.5l-2.9,2.8c-0.6,0.6-1.4,0.9-2.3,0.9S20.4,40.2,19.7,39.6z M20.6,9.7c-1-1.9-2.3-3.4-3.9-4.5
	s-3.3-1.8-5.1-1.8c-2.4,0-4.4,0.8-5.9,2.4C4.1,7.4,3.3,9.5,3.3,12c0,2.2,0.7,4.5,2.1,6.9s3.1,4.7,5.1,7s4,4.4,6.2,6.3
	s3.9,3.6,5.3,4.9c1.4-1.3,3.2-2.9,5.3-4.9c2.1-2,4.2-4.1,6.2-6.4s3.7-4.6,5.1-7s2.1-4.7,2.1-6.8c0-2.5-0.8-4.5-2.3-6.2
	s-3.5-2.4-5.9-2.4c-1.8,0-3.5,0.6-5.1,1.7c-1.6,1.2-2.9,2.7-4,4.6c-0.2,0.3-0.4,0.5-0.6,0.7c-0.2,0.1-0.5,0.2-0.8,0.2
	c-0.3,0-0.6-0.1-0.8-0.2C20.9,10.2,20.7,10,20.6,9.7z"/>
</svg>
