<?xml version="1.0" encoding="utf-8"?>
<!-- Generator: Adobe Illustrator 26.2.1, SVG Export Plug-In . SVG Version: 6.00 Build 0)  -->
<svg version="1.1" id="Шар_1" xmlns="http://www.w3.org/2000/svg" xmlns:xlink="http://www.w3.org/1999/xlink" x="0px" y="0px"
	 viewBox="0 0 81.19 104.51" style="enable-background:new 0 0 81.19 104.51;" xml:space="preserve">
<style type="text/css">
	.st0{fill:#FFFFFF;stroke:#161615;stroke-width:3;stroke-miterlimit:10;}
	.st1{fill:#FFFFFF;stroke:#161615;stroke-width:2;stroke-miterlimit:10;}
	.st2{fill:#161615;stroke:#161615;stroke-width:2;stroke-miterlimit:10;}
</style>
<g id="Group_58" transform="translate(-49.915 -636.817)">
	<path id="Path_199" class="st0" d="M112.68,643.21c2.84-1.65,5.89-2.91,9.07-3.73c2.04-1.07,2.7-1.02,2.92-0.78
		c0.4,0.44-0.59,1.55-0.9,3.64c-0.13,1.08-0.08,2.17,0.15,3.23c0.84,3.6,4.39,4.74,4,5.76c-0.54,1.42-7.98,0.8-10.48,1.69
		c-0.3,0.11-0.5,0.19-0.5,0.19c-1.25,0.52-1.55,0.98-2.69,1.47c-0.66,0.28-0.71,0.2-0.82,0.33c-0.68,0.87,2.35,3.78,4.11,6.5
		c5.2,8.07,7.8,12.1,9.12,13.61c1.42,1.5,2.29,3.42,2.5,5.47c0.04,0.74,0.14,2.52-1.05,3.45c-1.31,1.02-3.21,0.28-3.37,0.21
		c-1.72-0.7-2.48-2.4-2.97-3.41c-1.5-3.09-3.89-5.66-5.71-8.58c-1.49-2.38-1.83-2.88-2.84-4.44c-1.66-2.58-1.6-2.58-2.71-4.27
		c-1.87-2.84-2.81-4.27-3.6-4.46c-0.83-0.21-1.61-0.61-2.27-1.16c-0.05-0.05-0.1-0.1-0.1-0.1c-0.19-0.41-0.36-0.82-0.5-1.24
		c-0.62-1.36-1.32-2.69-2.1-3.97c-0.54-1.08-2.29-3.96-1.36-5.17c0.52-0.69,1.57-0.41,1.86-1.15c0.2-0.52-0.24-0.86-0.33-1.58
		c-0.18-1.43,1.14-3.39,2.55-3.46s2.61,1.74,2.89,2.15c0.42,0.62,0.38,0.83,0.68,1.06C109.35,645.28,111.67,643.82,112.68,643.21z"
		/>
	<path id="Path_200" class="st0" d="M91.63,672.12c0.11,1.2,2.09,2.17,3.88,3.04c0.74,0.4,1.53,0.72,2.34,0.95
		c3.99,0.98,7.94-1.81,10.05-3.29c1.38-0.87,2.6-1.97,3.61-3.25c1.4-1.84,1.33-2.8,3.13-5.35c1.29-1.83,2.13-2.92,3.49-3.07
		c1.68-0.11,3.25,0.88,3.85,2.46c0.23,0.75,0.08,1.52-2.74,6.05c-1.15,1.84-1.62,2.51-3.12,4.82c-2.6,4-2.62,4.22-3.47,5.21
		c-1.74,2.03-2.83,3.33-4.69,4.03c-3.27,1.22-5.71-0.46-7.81,1.37c-0.58,0.53-1.01,1.2-1.28,1.94c-1.81,4.41-2.64,9.16-2.45,13.92
		c0.65,8.01,1.89,20.86,2.41,30.05c0.22,3.84-0.62,6.92-2.18,7.41c-0.74,0.16-1.49,0.18-2.24,0.06c-2.88-0.22-5.16-0.39-5.77-1.65
		c-0.38-0.78,0.17-1.41,0.83-3.46c0.47-1.77,0.81-3.58,1.02-5.4c0.67-4.71-1.86-11.86-2.64-13.98c-0.16-0.26-1.48-2.24-2.95-2.05
		c-1.22,0.16-1.89,1.73-2.66,3.51c-0.5,1.22-0.88,2.49-1.13,3.78c-1.52,6.03-2,6.84-2.36,8.19c-0.12,0.48-0.22,0.96-0.29,1.45
		c-0.4,2.49-1.35,8.32-4.72,10.09c-2.51,1.32-6.41,0.43-7.24-1.41c-0.57-1.27,0.68-2.22,2.03-5.9c0.74-2.61,1.32-5.26,1.75-7.93
		c0.77-3.96,1.14-5.94,1.37-8.27c0.23-2.21,0.27-3.79,0.33-5.93c0.17-5.86-0.25-5.3-0.23-11.96c0-0.68-0.33-3.06-1-7.81
		c-0.06-0.87-0.46-1.67-1.11-2.24c-0.37-0.29-0.83-0.44-1.3-0.42c-1.3,0.21-1.87,2.87-2.2,4.16c-1.67,6.51-5.67,10.59-8.3,13.28
		c-1.78,1.82-3.08,2.64-4.33,2.37c-1.04-0.27-1.86-1.06-2.17-2.08c-0.51-1.74,0.98-3.32,3.73-7.12c0.35-0.49,2.36-3.28,3.88-5.72
		c3.65-5.9,2.84-7.24,5.35-9.41c2.13-1.64,4.57-2.82,7.17-3.47c1.94-0.59,4.1-0.98,6.11-2.81c0.47-0.43,1.65-1.53,1.39-2.45
		c-0.44-0.81-0.96-1.57-1.56-2.26l-0.07-0.1c-0.08-0.11-0.2-0.3-0.35-0.51l-0.09-0.12c-0.91-1.25-1.95-2.39-3.1-3.41
		c-1.63-1.67-2.86-3.69-3.6-5.9c-1.78-5.49,1.67-10.81,1.85-11.07c2.99-4.47,7.68-5.56,9.96-6.09c3.49-0.77,7.13-0.58,10.52,0.55
		c0.98,0.23,1.91,0.63,2.75,1.17c3.42,2.38,3.74,7.16,3.89,9.34c0.09,1.34,0.65,9.45-4.24,13.47
		C92.96,670.54,91.53,671.02,91.63,672.12z"/>
	<ellipse id="Ellipse_11" class="st1" cx="77.72" cy="655.12" rx="0.8" ry="0.84"/>
	<path id="Path_201" class="st2" d="M89.07,654.92c-0.14-0.13-0.19-0.32-0.15-0.5c0.05-0.25,0.27-0.39,0.54-0.55
		s0.62-0.38,0.77-0.25c0.17,0.14,0.02,0.67-0.15,0.84c0,0-0.28,0.29-0.3,0.32l-0.02,0.02l-0.02,0.02
		C89.72,654.83,89.33,655.11,89.07,654.92z"/>
	<path id="Path_202" class="st1" d="M80.22,663.14c0.91-0.09,1.85-0.17,2.83-0.23c1.91-0.11,3.72-0.13,5.41-0.08"/>
</g>
</svg>
