<?xml version="1.0" encoding="utf-8"?>
<!-- Generator: Adobe Illustrator 26.2.1, SVG Export Plug-In . SVG Version: 6.00 Build 0)  -->
<svg version="1.1" id="Шар_1" xmlns="http://www.w3.org/2000/svg" xmlns:xlink="http://www.w3.org/1999/xlink" x="0px" y="0px"
	 viewBox="0 0 68.77 104.73" style="enable-background:new 0 0 68.77 104.73;" xml:space="preserve">
<style type="text/css">
	.st0{fill:#FFFFFF;stroke:#161615;stroke-width:3;stroke-miterlimit:10;}
	.st1{fill:#010202;}
	.st2{fill:#010202;stroke:#161615;stroke-width:2;stroke-miterlimit:10;}
	.st3{fill:#1A391E;stroke:#161615;stroke-width:1.3;stroke-miterlimit:10;}
</style>
<g id="Group_66" transform="translate(-242.864 -306.712)">
	<path id="Path_224" class="st0" d="M287.41,340c0.07-0.65,0.25-1.28,0.53-1.87c1.06-2.19,3.25-2.89,4.44-3.57
		c3.62-2.07,5.09-8,4.51-12.45c-0.64-3.98-2.85-7.54-6.13-9.89c-5.49-4.06-11.71-3.01-13.39-2.73c-1.19,0.2-10.55,1.93-13.63,9.78
		c-0.32,0.8-2.08,5.49-0.17,9.64c1.18,2.58,3.39,4.56,5.08,6.08c1.19,1.09,2.28,2.3,3.26,3.59l0.09,0.13
		c0.23,0.32,0.39,0.57,0.44,0.65c0.48,0.61,0.88,1.27,1.2,1.97c0.1,0.27,0.17,0.55,0.21,0.84"/>
	<path id="Path_225" class="st0" d="M273.71,341.46c0.19,0.5,0.22,1.05,0.08,1.57c-0.29,1-1.28,1.44-2.21,2.01
		c-1.69,0.96-3.49,1.71-5.36,2.23c-0.27,0.09-3.18,1.06-4.59,1.67c-2.77,1.19-4.34,2.96-7.23,6.29c-2.67,3.1-4.97,6.5-6.85,10.13
		c-3.07,5.65-3.06,7.57-2.48,8.94c0.37,0.88,1.22,2.14,2.29,2.18c1.04,0.04,1.84-1.1,2.98-2.78c2.45-3.61,3.67-5.42,4.06-6.13
		c1.84-3.56,3.9-7.01,6.17-10.32c0.52-0.85,1.39-1.44,2.38-1.6c0.49,0,0.97,0.15,1.37,0.44c0.69,0.6,1.11,1.45,1.17,2.36
		c0.7,5,1.05,7.49,1.05,8.21c-0.02,7,0.43,6.41,0.25,12.57c-0.07,2.25-0.11,3.91-0.35,6.23c-0.33,2.92-0.81,5.82-1.44,8.69
		c-1.61,8.11-2.28,10.51-1.82,12.33c0.09,0.37,0.23,0.72,0.41,1.05c1.13,1.67,3.02,2.67,5.04,2.65c1.11,0.17,2.25-0.09,3.18-0.73
		c2.02-1.71,1.14-5.95,1.78-9.88c0.47-2.91,0.73-1.98,2.78-10.13c0.31-1.35,0.71-2.67,1.19-3.97c0.99-2.64,2.31-6.15,3.98-6.17
		c1.58-0.02,2.83,3.09,3.17,3.99c0.79,11.03,1.29,18.78,1.19,21.05c-0.08,1.34,0.24,2.67,0.93,3.82c0.23,0.37,0.54,0.69,0.9,0.94
		c0.8,0.44,1.72,0.63,2.63,0.56c0.78,0.09,1.57,0.06,2.35-0.07c1.64-0.52,2.52-3.76,2.29-7.79c-1.38-10.48-2.22-21.02-2.53-31.59
		c-0.13-4.54-0.38-17.24,2.05-17.66c0.44-0.08,0.92,0.28,1.86,0.99c1.47,1.16,2.65,2.63,3.48,4.3c1.38,2.38,2.58,4.87,3.59,7.43
		c0.06,0.15,0.74,1.63,2.11,4.59c0.6,1.3,1.03,2.2,1.99,2.54c0.73,0.28,1.55,0.16,2.17-0.31c0.53-0.61,0.76-1.43,0.62-2.23
		c-0.18-2.33-0.74-4.62-1.67-6.76c-2.72-6.44-2.16-5.87-3.23-7.76c-1.09-2.05-2.45-3.95-4.03-5.65c-2.17-2.24-4.68-4.13-7.45-5.58
		c-1.24-0.81-2.54-1.53-3.88-2.16c0,0-2.33-0.82-2.62-1.83c-0.02-0.07-0.03-0.13-0.04-0.2c0.03-0.34,0.1-0.68,0.21-1.01"/>
	<circle id="Ellipse_17" class="st1" cx="274.72" cy="323.88" r="1.5"/>
	<path id="Path_226" class="st0" d="M286.86,326.16c-0.15,1.07-0.58,2.08-1.24,2.93c-1.93,2.41-5.84,3.11-9.83,1.79"/>
	<path id="Path_227" class="st2" d="M286.81,319.79c0.07,0.21-0.33,0.47-0.43,0.53c-0.23,0.14-0.48,0.24-0.75,0.28
		c-0.24,0.06-0.69,0.16-0.76,0.05c-0.11-0.15,0.58-0.63,0.73-0.74c0.16-0.13,0.34-0.22,0.54-0.28
		C286.41,319.58,286.75,319.62,286.81,319.79z"/>
	<g id="Group_65">
		<path id="Path_228" class="st3" d="M249.27,354.46c-0.43,0.1-0.65,0.19-0.69,0.28c-0.01,0.08-0.02,0.17-0.01,0.25
			c0.01,0.12,0.01,0.26,0.01,0.32c0,0.22,0.05,0.44,0.13,0.64c0.21,0.8,0.35,1.62,0.42,2.45c0.29,1.95,0.34,2.27,0.33,2.4
			c-0.03,0.33-0.17,0.64-0.39,0.89c-0.41,0.51-0.65,1.14-0.68,1.8c0.05,0.64,0.15,1.27,0.3,1.89c0.75,4.06,2.21,11.74,2.28,12.05
			c0.23,0.9,0.41,1.09,1.13,1.19c0.68,0.07,1.36,0.04,2.03-0.09c0.85-0.06,1.65-0.4,2.28-0.96c0.12-0.2,0.17-0.44,0.16-0.67
			c-0.09-0.81-0.23-1.61-0.43-2.4c-0.16-0.7-0.33-1.62-0.99-5.35c-0.77-4.33-0.96-5.36-1.18-6.27c-0.04-0.31-0.16-0.6-0.34-0.85
			c-0.29-0.37-0.63-0.68-1.02-0.94c-0.47-0.24-0.79-0.7-0.84-1.23c-0.23-0.9-0.82-3.92-0.9-4.56c-0.02-0.19-0.06-0.37-0.14-0.55
			c-0.13-0.35-0.17-0.4-0.3-0.43C250.04,354.27,249.64,354.32,249.27,354.46z"/>
	</g>
</g>
</svg>
