<?xml version="1.0" encoding="utf-8"?>
<!-- Generator: Adobe Illustrator 26.2.1, SVG Export Plug-In . SVG Version: 6.00 Build 0)  -->
<svg version="1.1" id="Шар_1" xmlns="http://www.w3.org/2000/svg" xmlns:xlink="http://www.w3.org/1999/xlink" x="0px" y="0px"
	 viewBox="0 0 90.89 104.51" style="enable-background:new 0 0 90.89 104.51;" xml:space="preserve">
<style type="text/css">
	.st0{fill:#FFFFFF;stroke:#161615;stroke-width:3;stroke-miterlimit:10;}
	.st1{fill:#DB0451;stroke:#161615;stroke-width:1.6;stroke-miterlimit:10;}
	.st2{fill:#184793;stroke:#161615;stroke-width:1.6;stroke-miterlimit:10;}
	.st3{fill:#EBD915;stroke:#161615;stroke-width:1.6;stroke-miterlimit:10;}
	.st4{fill:none;stroke:#161615;stroke-width:1.6;stroke-miterlimit:10;}
	.st5{fill:#161615;stroke:#161615;stroke-width:1.5;stroke-miterlimit:10;}
</style>
<g id="Group_75" transform="translate(-386.755 -534.565)">
	<path id="Path_245" class="st0" d="M394.15,593.68c2.17-1.49,1.5-3.46,3.81-6.85c0.8-1.17,3.13-4.6,5.59-4.31
		c2.24,0.26,3.52,3.46,4.07,4.82c1.49,4.06,1.75,8.47,0.76,12.68c-5.27,25.74-5.96,31.98-2.8,35.5c0.45,0.51,1.78,1.98,3.37,1.84
		c3.45-0.3,5.61-8.02,8.06-17.06c2.31-8.51,2.68-12.66,3.81-12.68c1.6-0.02,3.33,8.24,4.58,14.2c1.63,7.78,1.77,11.64,4.24,12.56
		c1.73,0.64,4.05-0.35,5.45-1.76c2.86-2.88,1.67-7.43,0.47-21.96c-0.71-8.7,0.27-7.55-0.38-13.28c-1.09-9.64-3.58-15.43-1.46-16.75
		c1.38-0.87,3.84,0.74,4.37,1.09c2.48,1.62,3.03,3.97,4.68,7.63c1.63,3.6,4.19,9.26,5.93,9.04c1.8-0.24,3.72-6.89,1.72-12.46
		c-1.89-5.24-7.06-8.93-9.36-10.59c-1.74-1.13-3.41-2.37-4.98-3.72c-3.78-3.36-4.57-5.54-4.58-7.35c0-0.23,0.01-0.46,0.05-0.69
		c0.45-2.39,1.39-4.65,2.75-6.67c3.07-4.09,3.52-9.58,1.15-14.11c-3.03-5.53-9.74-7.54-15.13-6.07c-4.9,1.44-8.62,5.44-9.67,10.43
		c-0.55,3.17-0.37,6.42,0.54,9.5c0.5,1.21,0.76,2.5,0.76,3.8c-0.06,1.71-0.59,3.38-1.53,4.82c-1.83,2.87-4.71,3.93-6.61,4.82
		c-6.67,3.31-11.84,9.02-14.48,15.98c-0.42,1.16-2.33,6.44-0.25,8.11C390.28,595.17,392.64,594.72,394.15,593.68z"/>
	<path id="Path_246" class="st1" d="M450.22,593.07c0.43,0.63,0.92,1.21,1.46,1.75c1.49,1.59,3.43,2.69,5.56,3.17
		c0.78,0.16,1.48,0.14,6.23-0.78c4.41-0.85,6.65-1.3,8.24-2.29c1.98-1.1,3.51-2.85,4.33-4.96c0.51-1.59,0.53-3.29,0.05-4.89
		c-0.52-1.26-1.13-2.47-1.83-3.64c-1.33-2.6-1.58-3.18-1.65-4.07c-0.1-1.28,0.32-1.31,0.22-2.77c-0.02-1.32-0.47-2.6-1.29-3.64
		c-0.64-0.87-1.59-1.44-2.65-1.6c-1.03-0.13-2.06,0.22-2.8,0.94c-0.67,0.78-0.63,1.73-0.58,3.02c0.01,0.99,0.22,1.96,0.61,2.87
		c0.75,1.69,1.59,1.65,2.88,3.64c0.77,1.18,1.46,2.23,1.15,3.33c-0.41,0.96-1.22,1.7-2.22,2.01c-3.29,1.28-7.03-1.33-7.71-1.8
		c-3.29-2.29-4.62-5.42-4.82-5.3c-0.33,0.19,3.68,7.71,3.34,7.91c-0.25,0.15-2.32-3.8-3.47-3.45c-1.41,0.43-0.39,7.06-1.27,7.22
		c-0.65,0.11-1.47-3.52-2.32-3.45C450.84,586.34,450.43,589.89,450.22,593.07z"/>
	<path id="Path_247" class="st2" d="M452.1,607.47c0.49,0.15,0.95,0.36,1.37,0.64c0.96,0.72,1.72,1.67,2.22,2.76
		c1.09,1.9,1.71,4.04,1.82,6.23c0.07,1.65-0.22,2.14-0.46,2.41c-0.37,0.42-0.75,0.44-2.67,0.99c-2.09,0.6-2.32,0.76-2.49,0.92
		c-0.72,0.88-1.01,2.04-0.79,3.16c0.23,1.86,1.57,3.39,3.38,3.86c1.27,0.16,2.56-0.23,3.52-1.07c0.17-0.13,2.24-1.76,1.93-3.55
		c-0.16-0.91-0.76-1.13-0.71-1.95c0.06-0.9,0.85-1.47,1.49-2.03c0,0,0.28-0.25,3.01-3.97c1.5-2.05,2.13-6.75,1.97-10.97
		c-0.1-2.66-0.55-5.3-1.32-7.85c-4.07,1.9-8.87,1.2-12.23-1.77C452.13,599.33,452.12,603.4,452.1,607.47z"/>
	<path id="Path_248" class="st1" d="M441.98,597.07c0.72,0.96,6.85,9.33,4.65,13.05c-0.24,0.41-1.05,1.78-2.32,1.89
		c-0.98-0.06-1.88-0.54-2.48-1.31c-2.18-2.13-1.69-4.14-3.12-4.63c-1.25-0.44-2.73,0.71-3.36,1.36c-0.84,0.87-1.28,2.06-1.21,3.27
		c0.15,0.91,0.56,1.75,1.17,2.44c0.69,0.98,1.55,2.21,2.62,2.19c0.67-0.02,0.78-0.5,1.46-0.78c1.72-0.7,3.1,1.55,5.58,1.91
		c2.4,0.18,4.71-0.95,6.06-2.94c0.73-1.09,0.83-2.54,1.03-5.43c0.13-2.09,0.1-4.2-0.08-6.29c-0.08-0.94-0.16-1.56-0.28-2.7
		c-0.08-0.81-0.13-1.18-0.16-1.74c-0.11-1.6,0.02-1.51-0.08-1.96c-0.23-1.05-0.79-1.02-1.99-2.87c-0.54-0.84-0.59-1.09-1.2-1.91
		c-0.73-0.97-1.09-1.46-1.42-1.42c-1.04,0.12-0.84,4.67-1.98,4.87c-0.88,0.15-1.85-2.43-2.38-2.23c-0.53,0.19-0.36,3.11-0.23,3.88
		c0.06,0.3,0.05,0.61-0.05,0.9C442.15,596.79,442.07,596.93,441.98,597.07z"/>
	<path id="Path_249" class="st3" d="M458.63,586.62c0.35-0.15,0.06-1.56-0.05-2.1c-0.31-1.48-0.88-2.89-1.68-4.16
		c-1.21-1.97-2.58-3.83-4.09-5.58c-3.36,6.4-9.07,11.25-15.94,13.54c3.31,7.13,4.63,8.92,5.11,8.76c0.72-0.25-0.32-4.99,0.49-5.22
		c0.61-0.17,1.5,2.36,2.38,2.23c1.12-0.17,0.88-4.67,1.98-4.87c1.06-0.19,2.3,3.78,3.12,3.6c1.04-0.23,0.11-6.74,1.11-6.96
		c0.82-0.18,2.21,4.06,2.92,3.88c0.9-0.22-0.51-7.09,0.65-7.46C455.67,581.95,457.94,586.92,458.63,586.62z"/>
	<path id="Path_250" class="st4" d="M428.42,556.17c0.1,0.58-1.67,1.66-3.43,1.8c-4.16,0.34-7.76-4.51-7.36-5.07
		c0.27-0.37,2.12,1.34,6.43,2.28C426.7,555.76,428.33,555.63,428.42,556.17z"/>
	<path id="Path_251" class="st5" d="M428.6,548.6c0.32-0.18,0.73-0.1,0.95,0.2c0.26,0.37,0.18,0.87-0.19,1.13
		c-0.01,0.01-0.02,0.01-0.03,0.02c-0.28,0.1-0.65-0.17-0.8-0.47C428.36,549.2,428.39,548.85,428.6,548.6z"/>
	<path id="Path_252" class="st5" d="M418.02,548.05c-0.1-0.21-0.08-0.46,0.07-0.65c0.21-0.22,0.51-0.32,0.81-0.28
		c0.38,0.05,0.79,0.34,0.79,0.71c-0.02,0.24-0.17,0.46-0.39,0.56C418.84,548.61,418.3,548.46,418.02,548.05z"/>
</g>
</svg>
