<?xml version="1.0" encoding="utf-8"?>
<!-- Generator: Adobe Illustrator 26.2.1, SVG Export Plug-In . SVG Version: 6.00 Build 0)  -->
<svg version="1.1" id="Шар_1" xmlns="http://www.w3.org/2000/svg" xmlns:xlink="http://www.w3.org/1999/xlink" x="0px" y="0px"
	 viewBox="0 0 57.87 104.57" style="enable-background:new 0 0 57.87 104.57;" xml:space="preserve">
<style type="text/css">
	.st0{fill:#FFFFFF;stroke:#161615;stroke-width:3;stroke-miterlimit:10;}
	.st1{fill:#161615;stroke:#161615;stroke-width:2;stroke-miterlimit:10;}
	.st2{fill:none;stroke:#161615;stroke-width:2;stroke-miterlimit:10;}
	.st3{fill:#FFFFFF;stroke:#161615;stroke-miterlimit:10;}
	.st4{fill:none;stroke:#161615;stroke-miterlimit:10;}
</style>
<g id="Group_59" transform="translate(-215.931 -427.026)">
	<path id="Path_203" class="st0" d="M256.51,463.09c4,5.31,8.66,10.12,11.24,13.8c2.98,4.26,5.44,10.23,3.93,11.57
		c-0.99,0.88-3.84-0.07-5.39-1.63c-1.14-1.37-2.08-2.89-2.78-4.53c-0.48-1.06-0.86-2.1-1.75-2.33c-0.52-0.09-1.06,0.03-1.5,0.33
		c-2.54,1.54-1.41,10.5-1.41,10.5c0.23,1.96,1.88,20.27,2.48,30.98c0.23,3.95-0.64,7.13-2.24,7.64c-0.76,0.13-1.53,0.15-2.3,0.06
		c-0.89,0.08-1.79-0.11-2.58-0.55c-0.35-0.25-0.65-0.56-0.88-0.93c-0.68-1.13-0.99-2.43-0.91-3.75c0.08-2.16-0.15-6.06-0.52-11.31
		c-0.85-5.06-2.89-8.84-4.89-8.89c-2.49-0.07-5.16,5.56-5.57,8.78c-0.06,0.5-0.27,2.49-0.79,5.25c-0.14,0.74-0.23,1.07-0.3,1.49
		c-0.62,3.86,0.24,8.01-1.74,9.69c-0.91,0.62-2.03,0.88-3.12,0.72c-1.98,0.02-3.84-0.96-4.94-2.6c-0.18-0.32-0.31-0.67-0.4-1.03
		c-0.46-1.78,0.2-4.13,1.78-12.09c0.62-2.82,1.09-5.66,1.42-8.52c0.19-1.86,0.16-2.29,0.35-6.11c0.23-4.67,0.85-11.24-0.7-16.31
		c-0.31-1.02-0.86-2.44-2.07-2.85c-0.61-0.19-1.27-0.14-1.86,0.12c-1.36,0.66-1.21,2.22-2.4,4.61c-0.6,1.57-1.69,2.91-3.12,3.8
		c-1.63,0.83-4.31,0.96-5.26-0.29c-1.3-1.71,1.04-5.43,5.65-12.76c1.26-2.23,2.85-4.27,4.71-6.02c1.54-1.38,2.1-1.46,3.86-3.13
		c2.16-2.07,3.62-3.46,3.99-5.65c0.19-1.69-0.14-3.39-0.95-4.88c-1.16-2.58-2.56-3.22-3.73-4.86c-2.77-3.89-1.39-9.36-1.09-10.56
		c1.46-5.47,5.68-9.78,11.12-11.36c9.5-2.62,20.52,5.36,21.38,14.14c0.28,2.79-0.45,9.13-4.43,12.21c-1.25,0.97-3.22,1.92-3.48,3.83
		C255.25,460.92,255.68,462.15,256.51,463.09z"/>
	<circle id="Ellipse_12" class="st1" cx="252.38" cy="442.14" r="1.76"/>
	<path id="Path_204" class="st1" d="M241.48,441.79c0.04,0.17,0.05,0.34,0.03,0.51c-0.09,0.76-0.65,1.39-1.4,1.56
		c-0.95,0.18-1.87-0.43-2.07-1.38c-0.19-0.95,0.42-1.88,1.38-2.08C240.36,440.22,241.29,440.83,241.48,441.79L241.48,441.79z"/>
	<path id="Path_205" class="st2" d="M262.42,439.32c-9.78,4.47-20.99,4.62-30.88,0.39"/>
	<g id="Group_59-2">
		<path id="Path_206" class="st3" d="M242.26,449.26c3.81,0.36,7.65,0.23,11.43-0.4c-0.19,1.01-0.81,1.88-1.7,2.39
			c-0.34,0.15-0.71,0.22-1.09,0.23c-1.8,0.1-3.6-0.11-5.33-0.61c-1.43-0.46-2.78-1.15-3.98-2.05L242.26,449.26z"/>
		<line id="Line_10" class="st4" x1="251.29" y1="449.33" x2="251.29" y2="451.52"/>
		<line id="Line_11" class="st4" x1="248.97" y1="449.57" x2="248.97" y2="451.28"/>
		<path id="Path_207" class="st3" d="M246.56,449.73L246.56,449.73z"/>
		<path id="Path_208" class="st3" d="M244.53,449.34L244.53,449.34z"/>
	</g>
</g>
</svg>
