<?xml version="1.0" encoding="utf-8"?>
<!-- Generator: Adobe Illustrator 26.2.1, SVG Export Plug-In . SVG Version: 6.00 Build 0)  -->
<svg version="1.1" id="Шар_1" xmlns="http://www.w3.org/2000/svg" xmlns:xlink="http://www.w3.org/1999/xlink" x="0px" y="0px"
	 viewBox="0 0 60.43 104.51" style="enable-background:new 0 0 60.43 104.51;" xml:space="preserve">
<style type="text/css">
	.st0{fill:#FFFFFF;stroke:#161615;stroke-width:3;stroke-miterlimit:10;}
	.st1{fill:#6FC7F1;stroke:#161615;stroke-width:3;stroke-miterlimit:10;}
	.st2{fill:#161615;stroke:#161615;stroke-width:2;stroke-miterlimit:10;}
	.st3{fill:none;stroke:#161615;stroke-width:2;stroke-miterlimit:10;}
</style>
<g id="Group_79" transform="translate(-336.372 -668.474)">
	<g id="Шар_16">
		<path id="Path_259" class="st0" d="M394.44,733.24c-0.77-3.5-2.09-6.85-3.9-9.94c-1.59-2.52-3.16-3.51-9.7-8.75
			c-2.26-1.81-3.48-2.82-3.9-4.61c-0.25-1.27-0.13-2.59,0.35-3.79c1.61-4.7,3.93-6.74,5.68-9.82c0.54-0.96,4.64-8.4,1.66-14.56
			c-1.18-2.22-2.99-4.03-5.21-5.2c-1.18-0.7-6.23-3.74-11.95-1.66c-2.93,1.13-5.37,3.27-6.86,6.03c-0.66,1.27-1.07,2.65-1.22,4.07
			c-0.78,0.03-1.56,0.13-2.33,0.31c-4.62,0.97-6.93,1.46-9.47,2.84c-2.63,1.44-6.05,3.3-7.93,7.33c-0.99,2.14-1.4,4.51-1.18,6.86
			c0.27,2.55,1.26,4.97,2.84,6.98c0.95,1.22,2.06,2.3,3.32,3.2c7.7,5.96,10.13,6.25,11.59,8.99c1.6,3,0.64,6.3,0,8.76
			c-4.23,16.26-5.96,39.41-2.37,40.7c0.64,0.24,1.35-0.27,2.49-1.06c2.99-2.1,3.52-5.44,4.61-8.75c1.29-3.91,4.47-11.08,6.86-10.89
			c2.75,0.22,4.65,10.14,4.97,11.83c0.92,4.78,0.7,7.92,2.72,8.87c1.37,0.48,2.9,0.21,4.02-0.71c1.85-1.4,1.87-3.94,1.9-5.68
			c0.01-1.82-0.32-3.62-0.95-5.33c-0.3-0.88-0.84-5.45-1.89-14.55c-0.58-3.72-0.63-7.51-0.12-11.24c0.12-1.66,0.83-3.21,2.01-4.38
			c1.31-1.2,3.14-1.65,4.85-1.18c2.85,1.01,3.36,5.23,3.43,5.8c0.61,5.03-2.96,8.52-1.54,9.94c0.62,0.62,1.77,0.4,2.6,0.23
			c2.87-0.56,4.23-3.41,4.5-4.02C395.23,737.82,394.92,736.01,394.44,733.24z M363.56,704.61c-1.16,2.52-9.34,3.03-12.78-1.18
			c-0.12-0.15-2.37-3-1.42-5.92c0.81-2.48,3.48-3.6,5.32-4.38c1.47-0.57,3-0.97,4.57-1.2c0.27,2.53,0.92,5.01,1.95,7.34
			C362.74,702.81,364.07,703.51,363.56,704.61z"/>
		<path id="Path_260" class="st0" d="M359.26,691.94L359.26,691.94c3.46-1.28,5.43-3.33,5.11-4.56c-0.23-0.59-0.64-1.1-1.17-1.45
			c-0.54-0.36-1.15-0.59-1.79-0.67c-0.49-0.09-0.99-0.13-1.49-0.11c-1,0.01-2,0.07-2.99,0.2"/>
	</g>
	<g id="Шар_17">
		<path id="Path_261" class="st1" d="M368.06,709.17c-0.92-0.25-1.8-0.65-2.6-1.18c-3.4-2.31-4.1-6.74-4.5-9.23
			c-0.28-1.84-0.36-3.7-0.24-5.56c0.68-13.28,0.49-18.92,2.01-19.17c0.97-0.16,1.43,2.07,4.02,2.84c1.25,0.32,2.56,0.28,3.79-0.12
			c7.26-1.96,13.59-7.73,15.58-6.29c0.68,0.49,0.61,1.65,0.56,2.42c-0.83,11.72-1.24,17.58-4.9,25.64
			c-4.07,8.97-6.83,10.24-8.15,10.6C371.81,709.6,369.89,709.62,368.06,709.17z"/>
		<path id="Path_262" class="st2" d="M365.92,687.25c0.2-0.18,0.44-0.1,1.02-0.07c2.45,0.13,3.64-1.18,4.17-0.68
			c0.59,0.56-0.48,2.54-0.95,3.29c-0.61,0.97-1.21,1.94-2,1.93C366.61,691.72,365.13,687.99,365.92,687.25z"/>
		<path id="Path_263" class="st2" d="M375.68,686.77c0.25-0.41,0.96,0.02,2.86-0.29c1.46-0.24,1.94-0.64,2.36-0.33
			c0.55,0.42,0.46,1.66-0.03,2.48c-0.54,0.83-1.49,1.3-2.48,1.22C376.54,689.7,375.27,687.45,375.68,686.77z"/>
		<path id="Path_264" class="st3" d="M366.46,698.17c0.25-0.86,0.77-1.63,1.49-2.17c1.62-1.16,3.7-0.55,5.12-0.14
			c2.03,0.61,3.85,1.78,5.26,3.36"/>
	</g>
</g>
</svg>
