<?xml version="1.0" encoding="utf-8"?>
<!-- Generator: Adobe Illustrator 26.2.1, SVG Export Plug-In . SVG Version: 6.00 Build 0)  -->
<svg version="1.1" id="Шар_1" xmlns="http://www.w3.org/2000/svg" xmlns:xlink="http://www.w3.org/1999/xlink" x="0px" y="0px"
	 viewBox="0 0 68.77 103.49" style="enable-background:new 0 0 68.77 103.49;" xml:space="preserve">
<style type="text/css">
	.st0{fill:#FFFFFF;stroke:#040505;stroke-width:3;stroke-miterlimit:10;}
	.st1{fill:none;stroke:#040505;stroke-width:2;stroke-miterlimit:10;}
	.st2{fill:#161615;stroke:#040505;stroke-miterlimit:10;}
	.st3{fill:#FFFFFF;stroke:#040505;stroke-width:2;stroke-miterlimit:10;}
</style>
<g id="Group_91" transform="translate(-80.619 -531.952)">
	<path id="Path_296" class="st0" d="M97.02,592.49c1.81,1.41,1.42,4.85,1.05,7.81c-1.59,12.72-2.38,19.07-2.55,19.6
		c-0.69,2.54-1.04,5.17-1.05,7.81c-0.11,1.34,0.21,2.68,0.9,3.83c0.17,0.25,1.27,1.91,2.7,1.84c1.03-0.21,1.92-0.88,2.4-1.84
		c3.76-5.64,4.73-17.89,4.81-18.84c0.08-1.09,0.22-3.22,1.35-3.68c1.04-0.42,2.39,0.79,2.7,1.07c1.83,1.63,2.33,3.99,2.7,6.43
		c0.81,5.39,0.75,9.73,2.1,14.4c0.27,0.92,0.79,2.54,2.1,3.06c0.9,0.28,1.88,0.17,2.7-0.31c3.87-2.26,2.2-18.62-2.55-29.87
		c-1.31-3.53-2.07-7.25-2.25-11.02c-0.24-3.9,0.28-5.09,1.05-5.51c1.29-0.71,3.43,0.67,4.5,1.68c0.85,0.79,0.78,1.13,2.85,4.44
		c1.38,2.2,1.78,2.66,2.4,3.06c0.94,0.61,2.68,1.28,3.75,0.61c1.74-1.09,0.95-5.26,0.75-6.28c-2.08-10.93-12.93-14.35-12.02-21.6
		c0.06-0.45,0.48-1.83,1.35-4.59c1.66-5.31,2.21-5.98,2.7-7.97c0.88-4.1,0.51-8.37-1.05-12.26c-1.1-2.9-2.6-6.85-6.46-8.88
		c-6.14-3.24-13.15,1.06-14.42,1.84c-3.84,2.26-6.69,5.94-7.96,10.27c-0.34,1.24-1.67,6.17,0.6,10.57c1.75,3.39,5.81,6.79,6.12,7.05
		c1.55,1.28,2.97,2.17,3.64,4.13c0.45,1.34,0.45,2.8,0,4.14c-0.55,1.34-1.49,2.46-2.7,3.22c-3.54,2.48-6.37,6.2-10.96,12.26
		c-2.24,2.91-4.01,6.17-5.26,9.65c-1.12,3.18-1.23,5.1-0.3,6.43c0.53,0.83,1.43,1.35,2.4,1.38c0.9-0.06,1.65-0.76,2.7-2.45
		c2.05-3.3,2.22-5.53,4.35-9.5c0.68-1.26,1.38-2.37,2.55-2.6C95.56,591.77,96.37,591.99,97.02,592.49z"/>
	<path id="Path_297" class="st1" d="M106.18,556.19c0.24-0.49,0.6-0.92,1.05-1.23c1.01-0.64,1.63-0.04,3.15-0.31
		c1.57-0.27,1.7-1.04,3.9-1.53c1.3-0.3,1.65-0.11,1.8,0c0.71,0.51,0.58,1.79,0.45,3.06c-0.13,1.7-0.7,3.34-1.65,4.74
		c-0.44,0.76-1.06,1.39-1.8,1.84c-1.07,0.54-2.31,0.65-3.45,0.31C106.81,562.18,105.2,558.3,106.18,556.19z"/>
	<ellipse id="Ellipse_27" class="st2" cx="101.87" cy="551.36" rx="1.09" ry="1.12"/>
	<path id="Path_298" class="st2" d="M111.32,546.55c0.05-0.2,0.33-0.31,0.39-0.33c0.19-0.07,0.4-0.08,0.6-0.02
		c0.52,0.06,0.98,0.36,1.24,0.83c0.14,0.33,0.18,0.84-0.06,1.03l-0.02,0.01C113.03,548.35,111.16,547.15,111.32,546.55z"/>
	<path id="Path_301" class="st3" d="M136.93,534.51c0.96-0.44,2-0.68,3.05-0.72c1.88-0.04,3.72,0.58,5.2,1.77
		c2.56,2.11,3.47,6.21,2.11,10.14"/>
	<path id="Path_300" class="st3" d="M127.85,533.88c1.59-0.64,3.3-0.87,5-0.67c0.88,0.12,1.75,0.34,2.58,0.67
		c1.87,0.68,3.62,1.65,5.2,2.89c1.74,1.36,5.74,4.48,6.93,9.96c0.42,1.96,0.45,3.98,0.09,5.96"/>
	<path id="Path_299" class="st3" d="M127.85,533.88c-1.16,0.25-2.04,1.22-2.19,2.42c-0.39,1.92,0.78,4.05,1.19,4.84
		c1.15,2.24,2.56,4.33,4.2,6.23c2.58,2.88,5.63,5.3,9.01,7.14c2.71,1.48,5.08,2.74,6.5,1.73c1.16-0.83,1.12-2.78,1.1-3.56
		c-0.03-1.09-0.29-4.01-6.3-10.61c0,0-5.38-5.92-9.94-7.63C130.31,533.88,129.07,533.68,127.85,533.88z"/>
	<path id="Path_302" class="st3" d="M133,541.24c0.31-0.46,1.08-0.25,1.84-0.03c1.07,0.37,2.05,0.96,2.88,1.74
		c0.76,0.59,1.45,1.26,2.05,2.02c0.53,0.61,0.91,1.34,1.12,2.13c0.18,0.64,0.15,1.31-0.1,1.93c-0.84,1.19-4.71-0.46-6.72-3.84
		C133.36,543.99,132.51,541.97,133,541.24z"/>
</g>
</svg>
