<?xml version="1.0" encoding="utf-8"?>
<!-- Generator: Adobe Illustrator 26.2.1, SVG Export Plug-In . SVG Version: 6.00 Build 0)  -->
<svg version="1.1" id="Шар_1" xmlns="http://www.w3.org/2000/svg" xmlns:xlink="http://www.w3.org/1999/xlink" x="0px" y="0px"
	 viewBox="0 0 74.38 104.17" style="enable-background:new 0 0 74.38 104.17;" xml:space="preserve">
<style type="text/css">
	.st0{fill:#FFFFFF;stroke:#161615;stroke-width:3;stroke-miterlimit:10;}
	.st1{fill:none;stroke:#161615;stroke-width:2;stroke-miterlimit:10;}
	.st2{fill:#161615;stroke:#161615;stroke-width:2;stroke-miterlimit:10;}
</style>
<g id="Group_86" transform="translate(-417.211 -363.927)">
	<path id="Path_265" class="st0" d="M437.49,418.66c0.38,3.95,0.43,7.92,0.18,11.87c-0.15,3.78,0.13,3.07,0,7.44
		c-0.12,4.08-0.38,4.43-0.71,9.39c-0.63,9.61,0.11,11.99,0.53,13.11c1.4,3.73,2.44,5.07,3.54,5.67c0.28,0.15,2.4,1.26,4.25,0.36
		c1.88-0.93,2.33-3.38,2.66-5.14c0.61-3.3-0.49-4.1,0.35-6.56c0.6-1.76,1.79-3.27,3.37-4.25c2.3-1.27,4.84-0.64,7.27,0
		c6.97,1.85,13.97,3.54,20.91,5.49c2.19,0.68,4.54,0.68,6.73,0c0.91-0.31,2.77-0.95,3.19-2.3c0.81-2.6-4.17-6.21-5.14-6.91
		c-4.75-3.44-13.27-6.95-20.03-6.56c-1.53,0.18-3.08-0.13-4.43-0.89c-1.29-0.79-1.97-1.9-3.01-4.08c-3.33-6.92-3.77-10.8-3.9-12.23
		c-0.26-3.03,0.15-3.89,0.71-4.25c0.84-0.55,1.99,0.05,3.9,0.71c2.18,0.76,4.44,1.3,6.73,1.6c3.3,0.35,3.45-1.64,13.65-7.09
		c1.96-1.05,4.08-2.11,4.96-4.43c0.15-0.4,0.93-2.42,0-3.72c-1.45-2.03-6.33-1.27-9.57,0c-4.98,1.95-6.21,5.17-9.75,4.79
		c-1.18-0.31-2.32-0.79-3.37-1.42c-4.8-2.39-7.2-3.58-7.98-5.85c-0.74-2.16,0.19-4.31,0.71-5.49c1.35-3.1,3.18-3.2,4.79-5.67
		c1.89-2.91,1.52-6.11,0.89-11.52c-0.61-5.29-0.92-7.93-2.83-10.28c-3.83-4.7-10.59-4.63-13.11-4.61s-10.59,0.11-14.18,5.67
		c-2.78,4.31-1.43,9.69-0.18,14.71c0.72,3.37,1.97,6.6,3.72,9.57c1.96,3.21,3.27,3.93,2.98,5.43c-0.47,2.4-4.15,2.24-9.71,6.62
		c-1.57,1.14-2.94,2.51-4.08,4.08c-1.57,2.13-2.55,4.64-2.84,7.27c-0.27,3.16,0.83,5.41,3.01,9.92c3.23,6.66,5.95,8.12,6.73,8.51
		c0.81,0.4,2.78,1.36,4.08,0.53c1.52-0.98,1.22-3.86,1.06-5.32c-0.47-4.44-2.43-5.18-3.19-9.57c-0.32-1.85-0.92-5.33,1.06-7.09
		c1.27-1.12,3.53-1.49,4.79-0.53C437.06,416.44,437.51,417.53,437.49,418.66z"/>
	<path id="Path_266" class="st1" d="M440.86,391.36c1.45-0.23,1.65,0.2,3.19,0c1.58-0.21,1.74-0.72,3.01-0.71
		c0.79,0.01,2.38,0.22,2.66,1.06c0.29,0.89-1.04,2.03-1.77,2.66c-0.83,0.71-1.79,1.26-2.84,1.6c-0.87,0.28-3.69,1.17-5.67-0.36
		c-0.8-0.62-1.77-1.86-1.42-2.83C438.39,391.76,440.01,391.5,440.86,391.36z"/>
	<path id="Path_267" class="st2" d="M427.19,377.06c0.17,1.7,0.33,3.39,0.5,5.09c23.04-8.65,28.73-11.12,28.62-11.43
		c-0.12-0.36-7.45,2.18-19.73,4.66C432.79,376.14,429.57,376.69,427.19,377.06z"/>
	<path id="Path_268" class="st2" d="M426.87,382.18c10.95-0.28,21.71-2.97,31.5-7.9c0.84,0.04,1.74,0.11,2.67,0.21
		c1.31,0.15,2.61,0.37,3.9,0.66c-0.66-1.26-0.75-2.74-0.24-4.06c-0.43,0.15-0.87,0.28-1.32,0.38c-0.27,0.06-0.53,0.1-0.78,0.14
		c0,0-0.8,0.12-1.45,0.17c-1.65-0.16-3.28-0.51-4.85-1.05"/>
	<circle id="Ellipse_22" class="st2" cx="438.33" cy="386.41" r="1.06"/>
	<ellipse id="Ellipse_23" class="st2" cx="449.94" cy="383.18" rx="0.81" ry="1.03"/>
</g>
</svg>
