<?xml version="1.0" encoding="utf-8"?>
<!-- Generator: Adobe Illustrator 26.2.1, SVG Export Plug-In . SVG Version: 6.00 Build 0)  -->
<svg version="1.1" id="Шар_1" xmlns="http://www.w3.org/2000/svg" xmlns:xlink="http://www.w3.org/1999/xlink" x="0px" y="0px"
	 viewBox="0 0 82.38 103.49" style="enable-background:new 0 0 82.38 103.49;" xml:space="preserve">
<style type="text/css">
	.st0{fill:#FFFFFF;stroke:#161615;stroke-width:2.25;stroke-miterlimit:10;}
	.st1{fill:none;stroke:#161615;stroke-width:4;stroke-miterlimit:10;}
	.st2{fill:#FFFFFF;stroke:#161615;stroke-width:0.75;stroke-miterlimit:10;}
	.st3{fill:#FFFFFF;stroke:#161615;stroke-width:3;stroke-miterlimit:10;}
	.st4{fill:#171715;stroke:#161615;stroke-miterlimit:10;}
	.st5{fill:#FFFFFF;stroke:#161615;stroke-width:2;stroke-miterlimit:10;}
	.st6{fill:#8B8B8B;stroke:#161615;stroke-width:2.25;stroke-miterlimit:10;}
	.st7{fill:#25652C;stroke:#161615;stroke-width:0.75;stroke-miterlimit:10;}
	.st8{fill:#FFFFFF;}
</style>
<g id="Group_61" transform="translate(-325.729 -180.698)">
	<path id="Path_209" class="st0" d="M383.57,216.59c0-0.37,0.01-0.76,0.02-1.15c0.03-2.29,0.11-5.75,0.31-10.01l0.39-8.62h-0.61
		v-4.93h3.69l0.15,6.54c-0.44,7.65-0.7,11.61-0.85,13.83c-0.02,0.3-0.31,4.42-0.31,4.42c1.54,0.6,1.75,1.03,1.75,1.03
		c0.16,0.33,0.03,0.54,0,1.13c-0.02,0.75,0.11,1.49,0.37,2.19c0.24,0.84,0.3,2.81-0.35,7.65c0.21,1.03,0.47,2.31,0.77,3.77
		c1.15,5.69,1.22,6.09,1.22,6.87c-0.06,2.16-0.37,4.31-0.94,6.4c-0.26,1.19-0.53,2.16-0.72,2.83c-0.12,1.31-0.25,2.64-0.41,3.99
		c-0.4,3.44-0.89,6.72-1.46,9.85l-5.77,1.62c0.15-1.19,0.37-3.1,0.62-5.47c0.64-6.23,0.5-6.87,1-10.7c0.54-4.1,0.86-4.55,1.08-7.7
		c0.18-2.61,0.06-4.5,0.08-6C383.66,225.14,383.51,222.3,383.57,216.59z"/>
	<line id="Line_12" class="st1" x1="384.47" y1="197.01" x2="387.67" y2="197.01"/>
	<path id="Path_210" class="st2" d="M388.11,217.65l2.13,2.3"/>
	<g id="Group_60">
		<path id="Path_211" class="st3" d="M370.96,215.64c-0.05-1.26,0.7-2.41,1.87-2.87c1.25-0.43,5.95-4.87,6.13-11.13
			c0.27-9.13-8.81-15.93-16.5-14.39c-1.32,0.03-10.76,1.49-13.9,8.77c-0.45,1.04-2.79,5.9-0.77,9.29c0.88,1.48,2.18,2,5.77,5.91
			c0.67,0.73,1.2,1.34,1.54,1.73"/>
		<path id="Path_212" class="st3" d="M354.71,212.5c1.78,2.1,3.88,4.76,3.36,6.01c-0.11,0.26-0.48,0.92-2.1,1.9
			c-1.58,0.95-3.29,1.67-5.08,2.12c-0.83,0.23-3.46,1.68-8.71,4.57c-4.34,2.4-5.21,2.98-6.25,3.89c-1.06,0.93-1.09,1.14-3.13,3.08
			c-2.41,2.29-3.28,2.44-4.22,3.94c-0.61,0.97-1.61,2.57-1.03,4.31c0.48,1.42,1.72,2.44,3.2,2.63c1.4,0.11,2.44-0.84,4.33-2.63
			c3.37-3.57,5.35-6.93,10.44-10.35c0.8-0.56,2.39-1.23,3.53-0.71c0.62,0.42,1.03,1.09,1.13,1.84c0.65,2.39,0.82,4.88,0.52,7.34
			c-1.36,6.61,1.76,8.8,0.38,18.25c-0.92,6.33-1.85,12.83-4.33,16.93c-1.14,1.64-2.2,4.87,0.89,6.16c2.07,0.97,4.49,0.85,6.44-0.33
			c0.92-0.59,1.54-1.38,3.76-9.41c1.59-5.75,2.63-9.6,2.63-9.6c0.31-1.27,0.68-2.53,1.13-3.76c0.23-0.61,2.81-7.27,4.7-6.96
			c0.27,0.04,0.97,0.28,2.07,4.89c0.48,0.65,2.63,17.07,1.13,19.94c-0.43,0.91-1.13,1.94-0.75,3.01c0.48,1.35,2.34,1.86,2.59,1.93
			c0.83,0.21,1.71,0.21,2.54,0c0.77-0.08,1.5-0.38,2.12-0.85c1.28-1.2,1.89-5.35,2.12-6.49c0.75-7.87-1.49-22.36-2.4-29.92
			c-0.37-4.21-0.12-8.8,3.39-12.28c2.92-2.25,5.12-2.34,9.43-3.75c5.67-1.81,7.57-2.05,11.98-5.17c2.45-1.84,5.36-4.46,5.91-8.12
			c0.59-7.65-4.36-4.47-7.88-0.9c-0.73,0.83-1.52,1.6-2.38,2.3c-1.4,1.04-1.89,0.96-3.94,2.22c-1.66,1.02-1.66,1.28-3.12,2.13
			c-1.59,0.9-6.92,3.15-7.93,3.03c-0.87-0.11-2.23-1.33-4.89-3.77c-2.06-1.88-2.06-2.05-2.82-2.45c-1.56-0.7-3.1-1.22-2.32-2.87"/>
	</g>
	<circle id="Ellipse_13" class="st4" cx="358.8" cy="199.44" r="0.96"/>
	<circle id="Ellipse_14" class="st4" cx="369.32" cy="199.08" r="1.07"/>
	<path id="Path_213" class="st5" d="M359.53,207c3.03-0.69,6.14-0.95,9.24-0.78"/>
	<path id="Path_214" class="st6" d="M383.81,206.43c0.12,0.06-1.29,2.84-3.31,7.54c-1.38,3.21-1.27,3.2-2.15,5.12
		c-1.8,3.93-2.4,4.3-3.76,7.34c-1.76,3.91-2.58,5.93-2.45,7.9c0.24,3.38,2.34,5.96,3.98,8c1.81,2.23,2.71,3.34,4.11,4.23
		c0.93,0.59,1.72,0.91,2.13,1.85c0.38,0.87,0.1,1.51-0.23,3.55c-0.51,3.12-0.17,3.64-0.62,3.91c-1.34,0.81-5.53-3.24-8.16-6.84
		c-2.16-2.92-3.73-6.25-4.62-9.78c-0.61-2.5-1.25-5.27-0.39-8.54c0.58-1.69,1.35-3.32,2.29-4.84c1.36-2.58,2.91-5.05,4.64-7.4
		c2.24-3.03,2.55-2.82,4.53-5.57C382.44,209.25,383.7,206.37,383.81,206.43z"/>
	<path id="Path_215" class="st7" d="M374.12,192.37c1.04-1.25-0.79-2.8-0.56-6.59c0.1-1.77,0.59-2.9-0.13-3.58
		c-0.36-0.34-0.95-0.41-2.13-0.56c-0.78-0.09-1.57-0.12-2.35-0.09c-0.77,0.01-1.79,0.03-3.01,0.09l-6.21-0.22
		c-1.66,0.02-2.91,0.03-3.67,0.03c-1.08,0-1.48,0-1.88,0.29c-0.56,0.41-0.74,1.13-0.85,3.01c-0.2,3.54,0.24,4.19-0.38,4.89
		c-0.35,0.4-1.43,0.58-3.58,0.94c-1.05,0.11-2.09,0.33-3.1,0.66c-0.52,0.19-2.03,0.75-1.98,1.22c0.05,0.51,1.92,0.72,3.39,0.85
		c5.22,0.45,7.89,0.07,13.36,0.09c2.26,0.01,4.52-0.18,6.77,0c1.1,0.1,2.2,0.06,3.29-0.09C372.8,193.07,373.65,192.94,374.12,192.37
		z"/>
	<path id="Path_216" class="st8" d="M361.74,188.91v0.02h0.43v-0.06c0.01-0.1,0.02-0.2,0.04-0.3c0.06-0.43,0.3-0.82,0.66-1.07
		c0.35,0.26,0.58,0.65,0.66,1.08c0.02,0.1,0.03,0.2,0.04,0.3v0.04h0.42v-0.02c0-0.53-0.22-1.04-0.6-1.41h0.01
		c-0.23-0.48-0.32-1.01-0.27-1.54c0.02-0.51,0.04-1.16,0.06-1.67c0.02-0.28-0.08-0.55-0.27-0.76c-0.01-0.01-0.05-0.05-0.06-0.05
		s-0.05,0.04-0.06,0.05c-0.19,0.2-0.29,0.48-0.27,0.76c0.02,0.51,0.04,1.16,0.06,1.67c0.06,0.53-0.03,1.06-0.26,1.54
		C361.95,187.87,361.74,188.38,361.74,188.91L361.74,188.91z"/>
	<path id="Path_217" class="st8" d="M365.27,184.21c-0.01,0-0.02,0-0.03,0c-0.02,0.01-0.04,0.02-0.06,0.03
		c-0.24,0.14-0.46,0.31-0.65,0.52c-0.35,0.4-0.55,0.9-0.59,1.43c-0.02,0.28-0.07,0.56-0.11,0.84c-0.02,0.14-0.03,0.29-0.05,0.43
		c0.14-0.02,0.27,0.02,0.38,0.11c0.13,0.1,0.16,0.29,0.06,0.42c0,0.01-0.01,0.01-0.01,0.02c-0.06,0.06-0.14,0.11-0.22,0.15h-0.01
		c0.04,0.12,0.08,0.23,0.1,0.36l0.02-0.01c0.3-0.07,0.53-0.31,0.57-0.62c0.03-0.29-0.13-0.57-0.39-0.69
		c-0.05-0.02-0.06-0.05-0.05-0.1c0.04-0.31,0.09-0.62,0.12-0.94c0.03-0.29,0.12-0.57,0.26-0.82c0.08-0.13,0.16-0.25,0.25-0.37v4.11
		h-1.63v0.33h0.27c-0.07,0.28-0.22,0.54-0.43,0.73v-1.12c0.05-0.14,0.17-0.24,0.31-0.26l0.03-0.01c-0.01-0.05-0.02-0.1-0.02-0.12
		c-0.01-0.07-0.03-0.15-0.05-0.22l-0.09,0.03c-0.14,0.06-0.28,0.14-0.4,0.24c-0.12-0.1-0.26-0.18-0.4-0.24l-0.09-0.03
		c-0.02,0.07-0.04,0.14-0.05,0.22c0,0.02-0.01,0.07-0.02,0.12l0.03,0.01c0.14,0.02,0.27,0.12,0.31,0.26v1.13
		c-0.21-0.19-0.37-0.45-0.43-0.73h0.28v-0.33h-1.64v-4.11c0.09,0.12,0.17,0.24,0.25,0.37c0.14,0.25,0.23,0.53,0.26,0.82
		c0.03,0.31,0.08,0.63,0.12,0.94c0.01,0.05-0.01,0.07-0.05,0.1c-0.26,0.12-0.42,0.4-0.39,0.69c0.05,0.3,0.27,0.55,0.57,0.62
		l0.02,0.01c0.02-0.12,0.06-0.24,0.1-0.36h-0.01c-0.08-0.04-0.15-0.08-0.21-0.15c-0.11-0.12-0.1-0.31,0.03-0.42
		c0.01,0,0.01-0.01,0.02-0.01c0.1-0.09,0.24-0.13,0.38-0.11c-0.02-0.14-0.03-0.29-0.05-0.43c-0.04-0.28-0.08-0.56-0.1-0.84
		c-0.05-0.82-0.52-1.56-1.24-1.95c-0.02-0.01-0.04-0.02-0.06-0.03c-0.01,0-0.02,0-0.03,0v5.21h1.33c0.16,0.56,0.55,1.02,1.08,1.27
		c0.53-0.25,0.92-0.71,1.08-1.27h1.33V184.21L365.27,184.21z"/>
</g>
</svg>
