<?xml version="1.0" encoding="utf-8"?>
<!-- Generator: Adobe Illustrator 26.2.1, SVG Export Plug-In . SVG Version: 6.00 Build 0)  -->
<svg version="1.1" id="Шар_1" xmlns="http://www.w3.org/2000/svg" xmlns:xlink="http://www.w3.org/1999/xlink" x="0px" y="0px"
	 viewBox="0 0 43.1 40" style="enable-background:new 0 0 43.1 40;" xml:space="preserve">
<path d="M6.8,40c-0.9,0-1.7-0.3-2.4-1s-1-1.5-1-2.4V14.5c0-0.5,0.1-1,0.4-1.5c0.2-0.5,0.6-0.9,1-1.2L19.5,0.7c0.3-0.2,0.6-0.4,1-0.5
	C20.8,0.1,21.2,0,21.6,0c0.4,0,0.7,0.1,1.1,0.2s0.7,0.3,1,0.5l14.8,11.1c0.4,0.3,0.7,0.7,1,1.2c0.2,0.5,0.4,1,0.4,1.5v22.1
	c0,0.9-0.3,1.7-1,2.4c-0.7,0.7-1.5,1-2.4,1H26.1V24.1H17V40H6.8z"/>
</svg>
