<?xml version="1.0" encoding="utf-8"?>
<!-- Generator: Adobe Illustrator 26.2.1, SVG Export Plug-In . SVG Version: 6.00 Build 0)  -->
<svg version="1.1" id="Шар_1" xmlns="http://www.w3.org/2000/svg" xmlns:xlink="http://www.w3.org/1999/xlink" x="0px" y="0px"
	 viewBox="0 0 91.4 105.07" style="enable-background:new 0 0 91.4 105.07;" xml:space="preserve">
<style type="text/css">
	.st0{fill:#8C8B8C;stroke:#161615;stroke-width:2;stroke-miterlimit:10;}
	.st1{fill:#5A3B32;stroke:#161615;stroke-width:2;stroke-miterlimit:10;}
	.st2{fill:#FFFFFF;stroke:#161615;stroke-width:3;stroke-miterlimit:10;}
	.st3{fill:#DA0D26;}
	.st4{fill:#FFFCE5;stroke:#161615;stroke-miterlimit:10;}
	.st5{fill:none;stroke:#161615;stroke-miterlimit:10;}
	.st6{fill:#161615;stroke:#161615;stroke-width:2;stroke-miterlimit:10;}
	.st7{fill:#161615;stroke:#161615;stroke-width:3;stroke-miterlimit:10;}
</style>
<g id="Group_88" transform="translate(-273.263 -478.663)">
	<g id="Шар_19">
		<path id="Path_269" class="st0" d="M363.51,538.39c-0.16-0.44-0.37-0.85-0.62-1.24c-0.96-1.42-2.08-1.55-3.22-2.44
			c-1.58-1.23-0.84-2.06-2.68-4.25c-0.75-0.89-2.28-2.71-3.97-2.52c-0.93,0.22-1.72,0.8-2.23,1.61c-4.02,4.89-4.53,8.54-7.1,9.41
			c-0.81,0.24-1.6,0.57-2.33,0.99c-0.64,0.38-1.23,0.82-1.77,1.33c0.45,0.1,0.86,0.3,1.21,0.6c1.39,1.25,0.15,3.28,1.57,4.79
			c0.41,0.38,0.87,0.71,1.36,0.98c0,0,0.46,0.37,0.91,0.78c1.92,1.76,2.7,3.66,3.96,3.69c0.31,0.01,0.53-0.1,1.71-1.02
			c1.18-0.87,2.31-1.81,3.36-2.83c3.18-3.31,4.92-6.84,5.25-6.68c0.29,0.15-0.79,3.13-2.27,5.82c-0.94,1.91-2.26,3.61-3.88,4.99
			c-0.8,0.65-1.67,1.2-2.6,1.65c0.45,0.68,1.3,1.82,2.15,1.68c0.38-0.1,0.71-0.35,0.9-0.7
			C355.48,551.69,365.07,542.83,363.51,538.39z M354.13,534.6c-0.63,0.36-1.43,0.14-1.79-0.48c-0.36-0.63-0.14-1.43,0.48-1.79
			c0.63-0.36,1.42-0.14,1.78,0.48C354.97,533.44,354.76,534.24,354.13,534.6z"/>
		<path id="Path_270" class="st1" d="M342.98,546.88c-0.64-0.92-1.04-2-1.16-3.12c-0.41-1.99-0.28-3.44-0.74-3.53
			c-0.18-0.04-0.43,0.14-0.78,0.4c-0.2,0.14-0.38,0.31-0.54,0.49c-0.82,0.93-8.77,5.94-11.77,9.08c-0.41,0.43-0.78,0.89-1.11,1.39
			c-0.61,0.88-1.05,1.85-1.33,2.89c-0.29,1.17-0.47,1.9-0.07,2.59c0.52,0.71,1.35,1.12,2.23,1.13c1.3,0.04,2.03-1.12,3.46-2.57
			c1.32-1.29,2.75-2.45,4.29-3.46c2.17-1.4,4.37-2.83,7.25-3.15c0.68-0.08,1.67-0.11,1.77-0.52S343.74,547.83,342.98,546.88z
			 M334.44,550.19c-0.73,0.09-1.38-0.43-1.47-1.16s0.43-1.38,1.16-1.47c0.73-0.09,1.38,0.43,1.47,1.16c0.01,0.05,0.01,0.1,0.01,0.16
			C335.64,549.56,335.12,550.14,334.44,550.19z M339.49,547.17c-0.73,0-1.31-0.59-1.31-1.32s0.59-1.31,1.32-1.31
			c0.72,0,1.31,0.59,1.31,1.31C340.8,546.58,340.21,547.17,339.49,547.17L339.49,547.17L339.49,547.17z"/>
		<path id="Path_271" class="st2" d="M296.74,504.73c-0.92-1.6-0.98-1.37-1.61-2.59c-1.39-2.62-2.07-5.56-1.98-8.52
			c0.06-1.14,0.28-5.68,3.46-9.02c4.24-4.45,11.9-4.83,17.29-1.98c8.46,4.48,8.09,15.96,8.03,18.03c-0.09,2.93-0.19,6.52-2.47,9.63
			c-1.1,1.25-2.05,2.61-2.84,4.08c-0.79,1.58-1.69,3.44-1.23,5.68c0.37,2.31,2.15,4.14,4.45,4.57c2.77,0.74,4.89,2.65,7.16,4.69
			c3.8,3.41,5,7.89,5.93,11.36c0.48,1.79,0.61,4.78,0.86,10.74c0.09,2.08,0.13,4.11-0.86,4.57c-0.89,0.41-2.18-0.63-2.47-0.86
			c-2.96-2.39-2.28-6.37-3.46-10.62c-1.2-4.32-4.06-9.62-6.05-9.39c-2.64,0.31-3.5,10.37-3.7,12.72
			c-0.39,6.22-0.27,12.45,0.37,18.65c0.39,4.46,0.9,8.08-1.23,11.73c-0.27,0.46-2.3,3.94-4.08,3.58
			c-2.94-0.59-3.56-11.39-3.83-15.93c-0.33-5.64,0.04-9.18-1.36-9.63c-1.42-0.46-3.57,2.59-3.83,2.96c-2.5,3.6-1.16,5.94-2.96,11.73
			c-0.88,2.82-2.01,6.26-5.06,7.78c-0.76,0.38-2.71,1.35-4.08,0.62c-1.49-0.8-2.71-3.88,1.73-26.8c2.06-10.65,3.9-18.12,1.36-19.45
			c-0.55-0.22-1.17-0.25-1.73-0.06c-5.64,1.02-8.86,10.76-9.39,12.35c-0.68,2.07-1.49,5.19-4.2,7.78c-1.07,1.02-1.48,1.05-1.73,0.99
			c-1.78-0.45-2.58-7.75-0.37-13.83c1.13-3.1,3.72-5.98,8.89-11.73c3.08-3.42,4.62-5.14,6.67-6.3c1.67-0.95,3.2-1.45,4.82-3.21
			c1.19-1.19,2.05-2.69,2.47-4.32C300.48,511.27,298.65,508.07,296.74,504.73z"/>
		<path id="Path_272" class="st2" d="M309.5,505.16l0.02,0.06"/>
	</g>
	<g id="Шар_20">
		<path id="Path_273" class="st3" d="M360.79,536.46c-0.17,0.14,0.79,0.61,0.86,2.45c0.05,1.45,0.08,3.08-0.86,3.71
			c-0.27,0.15-0.49,0.38-0.64,0.65c-0.21,0.43-0.05,0.72-0.25,1.13c-0.16,0.28-0.4,0.51-0.69,0.64c-0.98,0.57-1.45,2.22-2.14,3.44
			c-0.66,1.16-1.73,1.97-3.88,3.6c-0.96,0.73-1.96,1.4-3.01,2c0.71,1.37,1.38,1.62,1.77,1.66c0.95,0.1,2.02-1.27,4.19-4
			c1.92-2.42,2.54-3.21,2.54-3.21c1.68-1.98,3.14-4.13,4.36-6.43c0.56-0.96,0.77-2.09,0.6-3.19
			C363.34,537.55,362.18,536.55,360.79,536.46z"/>
		<path id="Path_274" class="st4" d="M304.07,506.6c0.15-0.53,0.43-1.01,0.82-1.41c0.84-0.68,1.89-1.05,2.96-1.04
			c1.95-0.16,3.86-0.61,5.68-1.31c1.07-0.55,2.44-1.73,3.39-4.67c0.39,1.77,0.14,3.61-0.72,5.21c-0.53,0.77-1.19,1.45-1.96,1.98
			c-0.14,0.08-0.25,0.14-0.33,0.18c-0.14,0.07-0.26,0.13-0.34,0.16c-2.4,1.07-3.94-0.23-7.96,0.52
			C305.1,506.33,304.58,506.45,304.07,506.6z"/>
		<path id="Path_275" class="st4" d="M313.99,505.59c0.08-0.09,0.19-0.15,0.32-0.15c0.16,0.01,0.25,0.15,0.38,0.27
			c0.2,0.18,0.45,0.29,0.72,0.33"/>
		<path id="Path_276" class="st4" d="M281.01,496"/>
	</g>
	<g id="Шар_21">
		<path id="Path_277" class="st5" d="M306.09,504.56c0.52-0.12,1.05-0.21,1.58-0.26c0.35-0.04,0.69-0.09,1.03-0.13"/>
		<path id="Path_278" class="st5" d="M309.28,506.17c-0.86-0.07-1.72-0.06-2.57,0.02"/>
		<path id="Path_279" class="st3" d="M315.62,502.43c-0.05,0.08-0.09,0.17-0.11,0.26c-0.05,0.23-0.01,0.48,0.1,0.69
			c0.18-0.26,0.34-0.53,0.48-0.81c0.19-0.38,0.33-0.78,0.43-1.18c-0.05,0.05-0.09,0.09-0.13,0.15c-0.07,0.09-0.08,0.12-0.12,0.18
			c-0.14,0.19-0.25,0.16-0.31,0.3c-0.04,0.1,0.01,0.13-0.03,0.22C315.87,502.34,315.75,502.41,315.62,502.43z"/>
		<path id="Path_280" class="st4" d="M312.28,503.42c0.4,1.21,1.24,2.23,2.34,2.86c1.24,0.65,2.6,0.6,2.69,0.35
			c0.1-0.29-1.13-0.67-1.78-2.05c-0.15-0.32-0.26-0.65-0.32-0.99c-0.1-0.57-0.11-1.15-0.02-1.72l-0.01,0.01
			c-0.33,0.24-0.54,0.37-0.54,0.37l0,0c-0.41,0.27-0.84,0.53-1.29,0.75C313.01,503.16,312.65,503.31,312.28,503.42z"/>
		<path id="Path_281" class="st4" d="M311.91,506.22c-0.38,0.04-0.75,0.06-1.13,0.06c-0.5,0-1.01-0.04-1.51-0.11l-0.58-2.01
			c0.77-0.1,1.5-0.22,2.21-0.37c0.15,0.45,0.33,0.92,0.54,1.41C311.6,505.56,311.75,505.9,311.91,506.22z"/>
		<path id="Path_282" class="st4" d="M306.7,506.19c-0.07-0.38-0.19-0.75-0.34-1.1c-0.08-0.18-0.17-0.36-0.27-0.54
			c-0.52,0.13-1,0.4-1.39,0.78c-0.38,0.39-0.67,0.88-0.82,1.41c0.51-0.15,1.03-0.27,1.56-0.37
			C305.89,506.29,306.31,506.23,306.7,506.19z"/>
		<path id="Path_283" class="st4" d="M313.67,505.6c-0.63-0.61-1.11-1.36-1.39-2.18l0.23-0.08c-0.52,0.19-1.06,0.34-1.6,0.45
			c0.03,0.63,0.26,1.24,0.65,1.73c0.19,0.22,0.56,0.66,1.03,0.64c0.04,0,0.09-0.01,0.13-0.02c0.32-0.06,0.61-0.2,0.84-0.42
			C313.6,505.68,313.64,505.64,313.67,505.6z"/>
		<path id="Path_284" class="st3" d="M313.88,505.04c0.06-0.08,0.69,0.22,0.94,0.11c0.07-0.03,0.13-0.06,0.13-0.06
			c0.14-0.08,0.18-0.12,0.21-0.13c0.08-0.02,0.22,0.14,0.52,0.89l0.51,0.37c-0.22,0.09-0.47,0.11-0.7,0.07
			c-0.1-0.02-0.2-0.06-0.29-0.1c-0.33-0.15-0.63-0.36-0.88-0.62C314.22,505.47,313.83,505.11,313.88,505.04z"/>
		<circle id="Ellipse_24" class="st6" cx="312.28" cy="490.58" r="2.2"/>
		<circle id="Ellipse_25" class="st7" cx="301.41" cy="495.79" r="1.34"/>
		<path id="Path_285" class="st3" d="M311.97,504.9c0.11-0.02,0.2,0.15,0.27,0.12c0.04-0.01,0.08-0.09,0.07-0.37
			c0.04,0.07,0.08,0.15,0.14,0.23c0.01,0.01,0.06,0.1,0.12,0.19c0.12,0.17,0.24,0.33,0.38,0.48c-0.16,0.09-0.35,0.13-0.53,0.09
			c-0.06-0.02-0.12-0.06-0.17-0.1c-0.05-0.04-0.09-0.08-0.12-0.13c-0.23-0.29-0.29-0.32-0.27-0.39
			C311.86,504.97,311.91,504.92,311.97,504.9z"/>
		<path id="Path_286" class="st3" d="M305.11,505.79c-0.08,0.04-0.12,0.02-0.21,0.07c-0.06,0.03-0.12,0.08-0.15,0.14l1.33-0.24
			c-0.09-0.3-0.15-0.36-0.2-0.36c-0.06,0-0.11,0.11-0.23,0.11h-0.02c-0.1-0.01-0.21,0-0.3,0.04
			C305.2,505.62,305.25,505.71,305.11,505.79z"/>
		<path id="Path_287" class="st3" d="M306.94,505.23l0.1,0.3l1.51-0.04l-0.11-0.4c-0.07-0.06-0.15-0.09-0.24-0.08
			c-0.12,0.01-0.13,0.1-0.24,0.15c-0.2,0.09-0.35-0.11-0.63-0.09C307.19,505.08,307.05,505.13,306.94,505.23z"/>
		<path id="Path_288" class="st3" d="M309.54,505.31c0.04-0.03,0.08-0.06,0.12-0.08c0.1-0.04,0.2-0.05,0.3-0.05
			c0.18,0,0.37-0.02,0.55-0.06c0.07-0.02,0.14-0.04,0.2-0.07c0.05,0.12,0.11,0.24,0.17,0.35c0.07,0.12,0.15,0.24,0.24,0.36
			c-0.27,0.02-0.54,0.02-0.81,0.01c-0.21-0.01-0.43-0.03-0.64-0.07"/>
	</g>
</g>
</svg>
