<?xml version="1.0" encoding="utf-8"?>
<!-- Generator: Adobe Illustrator 26.2.1, SVG Export Plug-In . SVG Version: 6.00 Build 0)  -->
<svg version="1.1" id="Шар_1" xmlns="http://www.w3.org/2000/svg" xmlns:xlink="http://www.w3.org/1999/xlink" x="0px" y="0px"
	 viewBox="0 0 40 40" style="enable-background:new 0 0 40 40;" xml:space="preserve">
<style type="text/css">
	.st0{fill:#00A4FF;}
</style>
<rect x="8.1" y="1.5" class="st0" width="29.5" height="29.5"/>
<path d="M14.6,18.5h16.8c0.4,0,0.8-0.1,1.1-0.4c0.3-0.3,0.4-0.6,0.4-1.1c0-0.4-0.1-0.8-0.4-1.1c-0.3-0.3-0.6-0.4-1.1-0.4H14.6
	c-0.4,0-0.8,0.1-1.1,0.4s-0.4,0.6-0.4,1.1s0.1,0.8,0.4,1.1C13.9,18.4,14.2,18.5,14.6,18.5z M14.6,23h8.2c0.4,0,0.8-0.1,1.1-0.4
	c0.3-0.3,0.4-0.6,0.4-1.1s-0.1-0.8-0.4-1.1c-0.3-0.3-0.6-0.4-1.1-0.4h-8.2c-0.4,0-0.8,0.1-1.1,0.4c-0.3,0.3-0.4,0.6-0.4,1.1
	s0.1,0.8,0.4,1.1C13.9,22.9,14.2,23,14.6,23z M14.6,14h16.8c0.4,0,0.8-0.1,1.1-0.4s0.4-0.6,0.4-1.1c0-0.4-0.1-0.8-0.4-1.1
	c-0.3-0.3-0.6-0.4-1.1-0.4H14.6c-0.4,0-0.8,0.1-1.1,0.4c-0.3,0.3-0.4,0.6-0.4,1.1s0.1,0.8,0.4,1.1C13.9,13.9,14.2,14,14.6,14z M9,34
	c-0.8,0-1.5-0.3-2.1-0.9C6.3,32.5,6,31.8,6,31V3c0-0.8,0.3-1.5,0.9-2.1C7.5,0.3,8.2,0,9,0h28c0.8,0,1.5,0.3,2.1,0.9
	C39.7,1.5,40,2.2,40,3v28c0,0.8-0.3,1.5-0.9,2.1C38.5,33.7,37.8,34,37,34H9z M9,31h28V3H9V31z M3,40c-0.8,0-1.5-0.3-2.1-0.9
	C0.3,38.5,0,37.8,0,37V7.5c0-0.4,0.1-0.8,0.4-1.1C0.7,6.1,1.1,6,1.5,6c0.4,0,0.8,0.1,1.1,0.4C2.9,6.7,3,7.1,3,7.5V37h29.5
	c0.4,0,0.8,0.1,1.1,0.4s0.4,0.6,0.4,1.1s-0.1,0.8-0.4,1.1S32.9,40,32.5,40H3z M9,3v28V3z"/>
</svg>
