<?xml version="1.0" encoding="utf-8"?>
<!-- Generator: Adobe Illustrator 26.2.1, SVG Export Plug-In . SVG Version: 6.00 Build 0)  -->
<svg version="1.1" id="Шар_1" xmlns="http://www.w3.org/2000/svg" xmlns:xlink="http://www.w3.org/1999/xlink" x="0px" y="0px"
	 viewBox="0 0 407 153" style="enable-background:new 0 0 407 153;" xml:space="preserve">
<style type="text/css">
	.st0{fill:#1D1E1C;stroke:#1D1E1C;stroke-width:0.5;stroke-miterlimit:10;}
	.st1{fill:#FFFFFF;stroke:#1D1E1C;stroke-width:0.5;stroke-miterlimit:10;}
	.st2{fill:#1D1D1B;stroke:#1D1E1C;stroke-width:0.5;stroke-miterlimit:10;}
	.st3{display:none;}
	.st4{display:inline;}
	.st5{fill:#F4F4F4;stroke:#393939;stroke-width:1.35;stroke-miterlimit:10;}
	.st6{fill:#FFFFFF;stroke:#393939;stroke-width:1.35;stroke-miterlimit:10;}
	.st7{fill:none;stroke:#393939;stroke-width:1.35;stroke-miterlimit:10;}
	.st8{fill:#AA00FF;stroke:#393939;stroke-width:2;stroke-miterlimit:10;}
	.st9{fill:#FFFFFF;}
	.st10{fill:#FFFFFF;stroke:#393939;stroke-width:3;stroke-miterlimit:10;}
	.st11{display:none;fill:none;stroke:#393939;stroke-width:3;stroke-miterlimit:10;}
	.st12{fill:none;stroke:#393939;stroke-width:3;stroke-miterlimit:10;}
	.st13{fill:#AA00FF;stroke:#393939;stroke-width:3;stroke-miterlimit:10;}
	.st14{display:none;fill:none;stroke:#1D1E1C;stroke-width:3;stroke-miterlimit:10;}
</style>
<g id="logo_4" transform="translate(58.345 5.437)">
	<path id="Path_12_00000075128231511216493420000011533907263087359910_" class="st0" d="M120.6,126.6c14.3,1.3,22.7-1.1,27.8-5.9
		c8.8-8.5,8.6-21.2,8.5-40.3c-0.1-15.6,0.1-38.6,1.5-67.7l-14.7,0.2c-0.1,22.9-0.9,45.9-0.2,68.8c0.8,28.4-20.9,29.2-20.6-0.7
		c0.2-23.6,0.1-47.3,0.2-70.9l-20.7-0.2C103.1,80.1,104,125.6,120.6,126.6z"/>
	<path id="Path_13" class="st0" d="M173.8,14.4l2.1,112.4l13.8-0.4V83.3c5,14.2,10,28.5,15.1,42.8l9.6,0.1
		c0-37.3,0.1-74.6,0.1-111.9l-12.9,0.4c0.2,16.6,0.5,33.1,0.8,49.7c-6.1-16.6-12.2-33.2-18.3-49.8L173.8,14.4z"/>
	<path id="Path_14" class="st0" d="M265.3,86L251,86l-2.7-11.3h20.4h6.9c0.5,12.7-2,25.4-7.4,36.9c-3.9,8.2-8.6,16.4-15.2,16.9
		c-10.3,0.7-18.6-18.3-19.5-20.4c-2.8-6.4-5.2-16.2-3.2-37.4c1-11.1,4.9-53.8,22.8-57.8c5.7-1,11.5,0.8,15.7,4.8
		c2.2,2.3,3.5,5.2,4.8,14.7c1.1,8,1.6,16.1,1.5,24.2h-7c-0.4-5.6-2.2-9.6-3.4-11.8c-1.7-3.1-3.1-4.1-3.7-4.5c0,0-3.6-2.2-8.4-0.8
		c-11.6,3.5-12.4,63.7-0.9,66.2c4.1,0.9,10.9-5.4,13.1-12.2C265.5,90.6,265.5,88,265.3,86z"/>
	<path id="Path_15" class="st0" d="M300.7,14.2c-7.8,38.7-15.5,77.3-23.3,116h10.7l7.8-41h9.6c2.5,13.5,5,27,7.5,40.6l8.7,0.1
		L308.6,14.2C306,14.2,303.4,14.2,300.7,14.2z"/>
	<path id="Path_16" class="st1" d="M304.8,78.5h-10.4l7.8-33.4L304.8,78.5z"/>
	<path id="Path_17" class="st2" d="M321.8,8.6h22.9c-2.5,35.4-5,70.8-7.4,106.2l-6.8,0.2C327.6,79.6,324.7,44.1,321.8,8.6z"/>
	<circle id="Ellipse_1" class="st2" cx="335.1" cy="126.9" r="5.6"/>
</g>
<g id="Group_1" transform="translate(0.743 0.675)" class="st3">
	<g id="Шар_2_00000000209793570492651530000016809950814145800108_" transform="translate(0 0)" class="st4">
		<path id="Path_35" class="st5" d="M127.6,17.7v-0.5"/>
		<path id="Path_36" class="st6" d="M123,44.7l0.1-0.4c0.1-0.2,0.1-0.4,0.1-0.5c0.4-2.4,1.2-5.9,2.5-10.7c0.9-5.1,1.6-10.2,1.8-15.4
			c-10.7,8.4-19.9,15.5-27.7,21.5c-3.1,2.6-6.7,4.5-10.6,5.7c-5.2,1.3-10.6,1.4-15.9,0.4c-10.4-1.2-20.7-3-30.9-5.3
			C35.4,38.4,31,37,24.1,37.3c-3.6,0.2-7.1,0.8-10.6,1.6c-3.9,0.9-7.7,2.2-11.3,3.8v0.3C2.6,51.1,3.9,59.1,6,66.9
			c0.8-0.6,1.8-1.4,3.2-2.3c6-3.7,12.8-6.1,19.8-6.9c13.2-1.8,24.9,1.4,33.5,3.7c8.6,2.4,11.3,4.2,17.7,4C84.8,65.2,89,64,97,60.2
			C106.1,55.8,114.8,50.6,123,44.7z"/>
		<path id="Path_37" class="st7" d="M127.8,82.2"/>
		<path id="Path_38" class="st6" d="M110.9,85.7c1.5-4.5,3-9,4.5-13.6l0,0c-1.2,0.8-2.3,1.7-3.3,2.4c-3.9,3.2-7.4,7.6-14.4,9.1
			c-4.2,0.7-8.4,0.5-12.6-0.6c-9.4-1.6-19-2.7-28.5-3.3c-11.5-0.6-23,0.7-34.1,3.8c-4,1-7.7,2.1-11.1,3.2c0.6,1.9,1.1,3.9,1.6,5.9
			c0,0,0.6,1.9,1.5,4.9c2.9-0.9,6-1.8,9.3-2.6c7.4-1.9,15-3.1,22.6-3.4c9.7-0.4,19.4,0.2,29,1.8c4.8,0.8,9.7,1.2,14.6,1.2
			c3,0.1,6.1-0.3,9-1.2c2.5-1.2,4.9-2.7,7.2-4.3C108.2,87.5,109.8,86.4,110.9,85.7z"/>
		<path id="Path_39" class="st8" d="M90.9,125.4c-4.6,1.2-9.4,1.9-14.2,2.1c-13.2,0.5-23.1-3.1-33.1-1.8c-3.7,0.5-7.2,1.5-10.6,3
			c-1.1,0.5-2.2,1.1-3.2,1.7c3.8,6.2,8.6,11.6,14.2,16.2c1.2,0.9,2.4,1.6,3.8,2.2l0,0c2.5,1.1,5.2,1.7,7.9,1.6
			c3.9-0.2,16.1-4.2,30.4-19.4C88.2,128.6,89.8,126.7,90.9,125.4z"/>
		<path id="Path_40" class="st8" d="M2.3,42.6c3.7-1.5,7.4-2.7,11.3-3.6c3.5-0.9,7-1.4,10.6-1.6c6.9-0.3,11.2,1.1,18.4,2.8
			c10.2,2.3,20.5,4,30.9,5.3c5.3,1,10.7,0.9,15.9-0.4c3.9-1.1,7.5-3.1,10.6-5.7c7.7-6,16.9-13.1,27.7-21.5c0.9-4,0.6-8.2-1-12
			c-0.6-1.8-1.8-3.3-3.4-4.3c-1.8-0.9-3.8-1.3-5.8-1.1c-3.5-0.1-7,0.4-10.3,1.5c-5.3,1.9-7.6,5-11.5,8.7
			C90.8,14.9,82,23.1,70.8,23.9c-5,0.1-10-0.5-14.8-2c-3.8-1-4.9-1.8-9.5-3.4c-5.5-2.2-11.2-3.6-17-4.4c-11-0.4-20,9-23.2,14.6
			c-1.9,3.4-3.1,7.1-3.8,10.9C2.4,41,2.3,42,2.3,42.6z"/>
		<path id="Path_41" class="st8" d="M123.1,44.4c-0.1,0.7-0.3,1.7-0.6,2.9c-0.3,1.4-0.8,3.2-1.7,7c-1.5,5.4-3.4,11.8-5.3,17.8l0,0
			c-1.2,0.8-2.3,1.7-3.3,2.4c-3.9,3.2-7.4,7.6-14.4,9.1c-4.2,0.7-8.4,0.5-12.6-0.6c-9.4-1.6-19-2.7-28.5-3.3
			c-11.5-0.6-23,0.7-34.1,3.8c-4,1-7.7,2.1-11.1,3.2l0,0c-2.1-7.4-3.9-14-5.3-19.9c0.8-0.6,1.8-1.4,3.2-2.3c6-3.7,12.8-6.1,19.8-6.9
			c13.2-1.8,24.9,1.4,33.5,3.7c8.6,2.4,11.4,4.2,17.7,4c4.6-0.2,8.8-1.3,16.8-5.1c9.1-4.3,17.8-9.5,26-15.4"/>
		<path id="Path_42" class="st8" d="M14.6,97.5c2.9,8.6,6.4,17,10.6,25c0.6-0.3,1.9-0.9,3.5-1.6c17.9-7.3,31.9-0.3,55.2-3.2
			c5.1-0.7,10.2-1.7,15.1-3.2c2.3-3.9,4.3-8.2,4.3-8.2c1.6-3.4,2.9-6.8,4.1-10.3c0,0,1.5-4.2,3.6-10.3c-1.1,0.8-2.7,1.8-4.7,3.1
			c-2.2,1.7-4.6,3.2-7.2,4.3c-2.9,0.9-5.9,1.3-9,1.2c-4.9,0-9.8-0.4-14.6-1.2c-9.6-1.6-19.3-2.2-29-1.8C39,91.7,31.4,92.9,24,94.7
			C20.5,95.6,17.5,96.5,14.6,97.5z"/>
		<path id="Path_43" class="st6" d="M29.8,130.3c1-0.6,2.1-1.2,3.2-1.7c3.4-1.4,7-2.4,10.6-3c10-1.3,19.9,2.3,33.1,1.8
			c4.8-0.2,9.5-0.9,14.2-2.1c1.8-1.6,3.5-3.5,4.9-5.4c1.2-1.7,2.3-3.5,3.2-5.4c-1,0.3-2.7,0.8-4.9,1.3c0,0-5.1,1.2-10.3,1.9
			c-13.6,1.7-35.9-4.6-55.2,3.2c-1.6,0.7-2.8,1.2-3.5,1.6C26.8,125.1,28.3,127.7,29.8,130.3z"/>
	</g>
</g>
<path class="st9" d="M34,138.3c-0.1-0.2-0.3-0.5-0.4-0.7"/>
<path class="st10" d="M116.7,73.7c8.3-26.7,12.5-54.2,8.7-68.2c-1.7-6-13.3-3.2-18.2-1.7C93.8,8,93.4,19,78.8,23.5
	c-5.6,1.8-11.1,1.9-12.3,1.9c-3.9,0-7.4-0.6-12.3-1.9c-14.8-3.9-16.7-7.7-23.7-8.1c0,0,0,0,0,0c0,0-9-1.1-19.1,7.6
	C-2.1,34.7,8.6,94.7,26.1,128.9c4.7,9.2,11.3,19.3,22.1,21.8c3.9,0.9,7.1,0.6,9.2,0.4c16.6-1.8,31.2-15.2,42-35.3
	C106,103.8,112,88.9,116.7,73.7"/>
<path class="st11" d="M7,71.6c-0.2-0.4-0.3-0.7-0.4-1.1C2.3,59.6-1.8,46.8,2,44.3c0.7-0.4,1.4-0.2,1.9-0.4c0.5-0.2,1-0.4,1.4-0.6
	c9.2-3.8,16.7-4.5,21.9-4.4c3.1,0.1,8.6,1,19.5,2.9C62,44.4,61,44.6,65.4,45.1c10.4,1.2,18.1,2.1,26.7-0.9c4.9-1.7,8.3-4.2,15.1-9.3
	c5.7-4.2,12.5-9.9,19.5-17.2c6.4,0.2,12.4,2.4,14.1,6.5c2.2,5.6-3.5,15.8-16.7,20.4c-0.1,0.1-0.1,0.2-0.2,0.3
	c-2.8,3-24.4,18.5-39.6,20.7c-7.7,1.4-20.6-2.4-32.7-6.1C24,51,14.2,61.1,7.4,69.4c-0.3,0.4-0.6,0.7-0.9,1.1c0,0,0,0,0,0"/>
<path class="st12" d="M3,60.5"/>
<path class="st13" d="M73.4,129.2c5.2-0.1,12.5-1.1,21.1-5.1c-10.2,15.5-23,25.5-37.1,27c-2.1,0.2-5.3,0.5-9.2-0.4
	c-9.5-2.2-15.7-10.2-20.3-18.4c5.2-2.7,12.6-5.5,21.4-5.7C59.1,126.4,63.6,129.4,73.4,129.2z"/>
<path class="st13" d="M110.8,90.7c-3.5,9.1-7.3,17.7-11.4,25.2c-0.1,0.2-0.2,0.4-0.3,0.5c-4.7,1.1-10.6,2.1-17.5,2.3
	c-12.5,0.4-12.8-2.3-25.3-2c-16.1,0.4-27.4,5.3-32.4,7.8c-3.6-7.8-6.9-16.6-9.7-25.7c9.4-3.1,22.3-6.3,37.7-6.3
	c11.1,0,21.3,1.1,28.8,2.8c2.3,0.5,5.2,0.8,8.5,0.8c1.8,0,3.7-0.1,5.8-0.4C97.9,95.5,104.6,94.6,110.8,90.7z"/>
<path class="st13" d="M123.9,44.9c-1.8,9.7-4.5,20.1-7.7,30.3c-1.9,1-4.4,2.2-7.6,3.7c-7.2,3.4-12.9,5.7-14.2,6
	c-10.6,2.8-15.8-1.8-31.5-3.7C49.6,79.5,37.5,82,13.2,87c-0.9,0.2-1.6,0.3-2.1,0.4c-1.5-6.1-2.8-12.2-3.7-18.1
	C14.2,61.1,24,51,51.7,59.5c12,3.7,25,7.5,32.6,6.1C99.5,63.4,121.2,47.9,123.9,44.9z"/>
<path class="st13" d="M126.8,17.7c-7.1,7.3-13.8,12.9-19.5,17.2c-6.8,5-10.3,7.6-15.1,9.3c-8.6,3-16.3,2.1-26.7,0.9
	c-4.4-0.5-3.5-0.7-18.6-3.3c-10.9-1.9-16.4-2.9-19.5-2.9c-5.2-0.1-12.7,0.6-21.9,4.4c0.3-9.6,2.2-16.9,6.1-20.3
	c8-6.9,15.4-7.6,18-7.6c0.7,0,1.1,0,1.1,0c6.9,0.4,8.8,4.2,23.7,8.1c4.9,1.3,8.4,1.9,12.3,1.9c1.2,0,6.6-0.1,12.3-1.9
	C93.4,19,93.8,8,107.1,3.8c4.9-1.5,16.6-4.4,18.2,1.7C126.3,8.8,126.8,13,126.8,17.7z"/>
<path class="st11" d="M11.2,87.5c1,3.8,2,7.6,3.1,11.4c-0.8,0.2-1.5,0.5-2.2,0.7c-5,0.8-8.9-2.8-8.9-6C3.2,90.7,6.6,87.3,11.2,87.5z
	"/>
<path class="st11" d="M117,85.5c-1.9,2.2-4,3.9-6.1,5.2c1.9-5,3.7-10.2,5.4-15.5c3.4-1.7,5.1-2.5,5.9-1.7
	C123.6,74.9,120.8,81.1,117,85.5z"/>
<path class="st14" d="M26.1,128.9c0.6,1.2,1.2,2.3,1.8,3.5c-0.6,0.3-1.2,0.6-1.8,0.9l-9.8-4.1c1.3-0.9,3.3-2.2,5.9-3.7
	c0.4-0.2,1-0.6,1.8-1C24.7,126.1,25.4,127.5,26.1,128.9z"/>
<path class="st14" d="M104.6,114.9l-6.9,7.6c-1.1,0.6-2.1,1.1-3.2,1.6c1.6-2.4,3.1-5,4.6-7.7C101.2,115.9,103.1,115.4,104.6,114.9z"
	/>
</svg>
