<?xml version="1.0" encoding="utf-8"?>
<!-- Generator: Adobe Illustrator 26.2.1, SVG Export Plug-In . SVG Version: 6.00 Build 0)  -->
<svg version="1.1" id="Шар_1" xmlns="http://www.w3.org/2000/svg" xmlns:xlink="http://www.w3.org/1999/xlink" x="0px" y="0px"
	 viewBox="0 0 40 40" style="enable-background:new 0 0 40 40;" xml:space="preserve">
<style type="text/css">
	.st0{fill:#FFEB3B;}
</style>
<rect x="1.3" y="3.2" class="st0" width="26.1" height="16.8"/>
<path d="M0,29.1V2.3c0-0.5,0.2-1,0.7-1.4S1.5,0.1,2,0.1h26c0.5,0,1,0.2,1.4,0.7c0.4,0.5,0.6,1,0.6,1.5v18.3c0,0.5-0.2,1-0.7,1.4
	c-0.4,0.5-0.9,0.7-1.4,0.7H8l-6.7,6.9c-0.2,0.2-0.5,0.3-0.8,0.2C0.2,29.7,0,29.5,0,29.1z M3,3.2v16.5V3.2z M10.1,33
	c-0.5,0-0.9-0.2-1.4-0.7c-0.5-0.5-0.7-1-0.7-1.4v-5h25V8.3h5c0.5,0,0.9,0.2,1.3,0.7c0.4,0.5,0.7,1,0.7,1.5v28.8
	c0,0.3-0.2,0.6-0.5,0.7c-0.3,0.1-0.6,0.1-0.8-0.2L32.1,33H10.1z M27,3.2H3v16.5h24V3.2z"/>
</svg>
