<?xml version="1.0" encoding="utf-8"?>
<!-- Generator: Adobe Illustrator 26.2.1, SVG Export Plug-In . SVG Version: 6.00 Build 0)  -->
<svg version="1.1" id="Шар_1" xmlns="http://www.w3.org/2000/svg" xmlns:xlink="http://www.w3.org/1999/xlink" x="0px" y="0px"
	 viewBox="0 0 59.74 104.98" style="enable-background:new 0 0 59.74 104.98;" xml:space="preserve">
<style type="text/css">
	.st0{fill:#FFFFFF;stroke:#000000;stroke-miterlimit:10;}
	.st1{fill:#FFFFFF;}
	.st2{fill:#FFFFFF;stroke:#161615;stroke-width:3;stroke-miterlimit:10;}
	.st3{fill:none;stroke:#161615;stroke-width:3;stroke-miterlimit:10;}
	.st4{fill:#161615;stroke:#161615;stroke-miterlimit:10;}
	.st5{fill:none;stroke:#161615;stroke-width:2;stroke-miterlimit:10;}
	.st6{fill:#DC0D1A;}
	.st7{fill:none;stroke:#161615;stroke-miterlimit:10;}
	.st8{fill:none;}
</style>
<path class="st0" d="M40.79,40.17c1.69,2.14,5.68-0.12,8.09,2.3c0.87,0.88,1.3,2.14,1.19,3.23c-0.25,2.53-3.42,4.58-6.13,4.85
	c-1.62,0.16-2.29-0.38-4.68,0c-0.98,0.16-2.06,0.44-2.98,1.28c-0.32,0.29-0.77,0.7-0.94,1.28c-0.41,1.41,1.04,3.16,2.04,3.91
	c3.28,2.47,8.91-0.24,16.34-3.83c1.05-0.51,2.75-1.37,4-3.23c0.36-0.54,1.6-2.39,1.36-4.43c-0.33-2.85-3.36-4.49-6.81-6.3
	c-1.27-0.67-9.63-5.05-11.66-2.64C39.89,37.46,40,39.18,40.79,40.17z"/>
<g id="Group_51" transform="translate(-39.146 -236.487)">
	<path id="Path_198" class="st1" d="M62.74,267.05l2.43,5.3v5.74l8.61,5.52c3.42,0.77,6.84,1.54,10.26,2.32
		c-0.19-1.87-0.39-3.74-0.58-5.62c-0.86-3.65-1.74-7.13-1.95-7.08c0,0-0.01,0-0.01,0.01c-0.22,0.23-3.75-6.18-3.75-6.18
		L62.74,267.05z"/>
	<g id="Group_34" transform="translate(-14.458 125.838)">
		<g id="Шар_1_00000036949511777411989980000005511496491210256564_" transform="translate(55.118 112.162)">
			<g id="Group_33">
				<path id="Path_147" class="st2" d="M38.84,32.71c0.14-1.47,0.88-2.81,2.05-3.71c1.35-0.67,2.54-1.62,3.5-2.79
					c1.52-2.04,2.44-4.46,2.67-7c0,0,0.07-0.55,0.1-1.06c0.18-3.1-1.62-9.18-6.36-13.23c-4.94-4.21-13.12-6.29-19.77-2.74
					c-0.86,0.46-6.45,3.56-7.83,9.98c-0.18,0.82-1.16,5.43,1.17,9.2c1.04,1.6,2.29,3.05,3.72,4.31c0.92,0.77,1.8,1.58,2.64,2.44
					c0.48,0.5,1.03,1.1,1.6,1.8"/>
				<path id="Path_148" class="st2" d="M42.98,49.62"/>
				<path id="Path_149" class="st2" d="M39.21,31.26c-1.18,2.23,0.07,2.23,1.29,2.98"/>
				<path id="Path_150" class="st3" d="M44.42,58.23c0.5-1.02,1.27-1.88,2.23-2.48c1.67-1.07,3.84-1.58,6.45-4.08
					c1.65-1.33,2.86-3.14,3.45-5.18c0.05-0.21,1.09-4.94-1.55-7.43c-1.81-1.7-8.36-3.18-11.46-3.82c-1-0.21-1.64-0.32-1.65-0.34
					l-1.54-0.77"/>
				<path id="Path_151" class="st2" d="M21.92,29.45c2.89,3.51,5.52,6.39,1.31,8.23C8.68,44.28,5.82,46.9,4.92,47.79
					c-3.15,3.12-5.37,7.79-4.11,9.4c0.82,1.04,3.17,0.89,4.7,0.15c0.67-0.33,1.05-0.71,3.67-4.11c1.77-2.3,2.18-2.88,3.19-3.51
					c6.2-3.95,5.29,5.15,5.38,8.81c-0.2,3.72,0.85,10.6,0.74,12.85c-0.1,1.84-0.44,2.67-1.58,6.47c-2.72,8.81-7.46,27.11,3.72,21.92
					c4.55-2.41,5.15-14.79,7.05-21.43c0.52-2.25,2.37-6.1,5.87-5.67c2.06,0.55,3.36,4.6,2.79,10.07
					c-1.14,8.84-0.68,15.34,0.21,16.51c0.66,0.91,1.57,1.6,2.61,1.98c1.69,0.43,3.48,0.11,4.92-0.86c1.33-1.25,1.96-5.56,2.2-6.75
					c0.53-14.31-0.55-20.83-1.72-24.09c0,0-1.86-5.1-0.76-9.37c0.04-0.15,0.2-0.71,0.45-1.37c0.19-0.64,0.5-1.23,0.9-1.76
					c0.18-0.22,0.38-0.41,0.61-0.58"/>
			</g>
			<circle id="Ellipse_8" class="st4" cx="23.83" cy="15.47" r="1.4"/>
			<ellipse id="Ellipse_9" class="st4" cx="35.94" cy="12.7" rx="1.37" ry="1.38"/>
			<path id="Path_168" class="st5" d="M37.12,21.01c-1.66,1.31-3.63,2.19-5.72,2.55c-1.59,0.27-3.22,0.22-4.79-0.12"/>
		</g>
		<g id="Шар_6" transform="translate(78.86 153.448)">
			<path id="path4" class="st6" d="M8.52,2.92c-0.73-1.5-2.23-2.48-3.9-2.54C2.27,0.42,0.4,2.36,0.44,4.71c0,0.05,0,0.1,0.01,0.14
				c0,4.93,2.5,5.68,8.07,11.35c5.57-5.68,8.07-6.42,8.07-11.35c0.12-2.35-1.68-4.35-4.03-4.48c-0.05,0-0.09,0-0.14-0.01
				C10.75,0.45,9.26,1.42,8.52,2.92z"/>
		</g>
		<g id="Шар_8" transform="translate(87.411 159.708)">
			<path id="Path_169" class="st1" d="M11.09,0.38l1.59,7.17L4.86,7.29l-3.25-1L0.45,4.63l1.17-2.46l2.3-0.73l5.57-1.01L11.09,0.38z
				"/>
		</g>
		<g id="Шар_5" transform="translate(87.137 151.999)">
			<path id="Path_170" class="st7" d="M11.51,15.79"/>
			<path id="Path_171" class="st3" d="M15.82,15.25c-1.4,0.39-2.86,0.57-4.31,0.53c-0.17-0.01-0.84-0.04-1.86-0.1
				c-2.13-0.12-2.88-0.05-3.62-0.1c-2.39-0.17-5.53-1.76-5.58-3.43c-0.04-1.4,2.15-2.82,3.92-3.32c2.46-0.7,5,0.14,6.88-0.56
				C11.93,8,12.59,7.68,13.22,7.3c0.26-0.16,0.51-0.34,0.77-0.54c0.94-0.72,2.27-1.73,2.2-2.94c-0.08-1.43-2.23-2.95-5.5-3.45
				c0.1,2.25,0.23,4.93,0.39,7.97"/>
			<line id="Line_5" class="st8" x1="16.19" y1="3.83" x2="15.82" y2="15.25"/>
		</g>
	</g>
</g>
</svg>
