<?xml version="1.0" encoding="utf-8"?>
<!-- Generator: Adobe Illustrator 26.2.1, SVG Export Plug-In . SVG Version: 6.00 Build 0)  -->
<svg version="1.1" id="Шар_1" xmlns="http://www.w3.org/2000/svg" xmlns:xlink="http://www.w3.org/1999/xlink" x="0px" y="0px"
	 viewBox="0 0 140 173" style="enable-background:new 0 0 140 173;" xml:space="preserve">
<style type="text/css">
	.st0{fill:#F4F3F4;stroke:#393939;stroke-width:1.35;stroke-miterlimit:10;}
	.st1{fill:#FFFFFF;stroke:#393939;stroke-width:1.35;stroke-miterlimit:10;}
	.st2{fill:none;stroke:#393939;stroke-width:1.35;stroke-miterlimit:10;}
	.st3{fill:#6D4695;stroke:#393939;stroke-width:2;stroke-miterlimit:10;}
</style>
<g id="Group_1" transform="translate(0.743 0.675)">
	<g id="Шар_2_00000000209793570492651530000016809950814145800108_" transform="translate(0 0)">
		<path id="Path_35" class="st0" d="M131.67,26.71v-0.48"/>
		<path id="Path_36" class="st1" d="M127.11,53.73l0.05-0.38c0.05-0.19,0.05-0.38,0.11-0.53c0.44-2.39,1.19-5.93,2.5-10.66
			c0.94-5.09,1.55-10.23,1.85-15.4c-10.7,8.37-19.88,15.5-27.66,21.52c-3.11,2.59-6.71,4.53-10.59,5.69
			c-5.19,1.28-10.61,1.43-15.86,0.43c-10.37-1.22-20.67-2.97-30.86-5.26c-7.17-1.72-11.52-3.11-18.42-2.82
			c-3.57,0.21-7.12,0.75-10.59,1.63c-3.88,0.91-7.66,2.2-11.3,3.83v0.27c0.35,8.06,1.63,16.06,3.8,23.83
			c0.76-0.58,1.85-1.39,3.2-2.3c6.01-3.73,12.76-6.09,19.78-6.93c13.2-1.82,24.88,1.39,33.47,3.73c8.64,2.39,11.35,4.21,17.71,3.97
			c4.56-0.19,8.8-1.34,16.84-5.12C110.23,64.82,118.92,59.64,127.11,53.73z"/>
		<path id="Path_37" class="st2" d="M131.89,91.22"/>
		<path id="Path_38" class="st1" d="M115.05,94.66c1.52-4.54,2.99-9.04,4.46-13.58l0,0c-1.25,0.82-2.34,1.67-3.31,2.44
			c-3.91,3.25-7.39,7.6-14.4,9.09c-4.18,0.7-8.45,0.51-12.55-0.58c-9.44-1.6-18.96-2.72-28.52-3.35
			c-11.5-0.61-23.03,0.67-34.12,3.78c-4.02,0.96-7.71,2.06-11.14,3.2c0.55,1.92,1.1,3.87,1.64,5.93c0,0,0.55,1.87,1.52,4.88
			c2.88-0.91,5.98-1.82,9.34-2.63c7.4-1.91,14.97-3.07,22.6-3.44c9.69-0.38,19.39,0.21,28.96,1.77c4.83,0.79,9.72,1.19,14.61,1.2
			c3.04,0.13,6.07-0.27,8.96-1.2c2.53-1.2,4.94-2.66,7.17-4.35C112.33,96.48,113.91,95.43,115.05,94.66z"/>
		<path id="Path_39" class="st3" d="M95.01,134.35c-4.64,1.19-9.39,1.89-14.18,2.1c-13.2,0.48-23.09-3.11-33.09-1.82
			c-3.65,0.52-7.21,1.52-10.59,2.97c-1.1,0.5-2.17,1.06-3.2,1.67c3.76,6.18,8.58,11.65,14.24,16.16c1.17,0.87,2.42,1.6,3.75,2.19
			l0,0c2.48,1.11,5.16,1.66,7.88,1.63c3.91-0.19,16.14-4.16,30.42-19.37C92.28,137.61,93.91,135.65,95.01,134.35z"/>
		<path id="Path_40" class="st3" d="M6.39,51.62c3.66-1.53,7.44-2.74,11.3-3.63c3.47-0.86,7.02-1.41,10.59-1.63
			c6.85-0.27,11.19,1.1,18.42,2.82c10.19,2.29,20.49,4.05,30.86,5.26c5.26,1,10.67,0.86,15.87-0.43c3.89-1.14,7.49-3.08,10.59-5.69
			c7.71-6.03,16.95-13.15,27.66-21.52c0.9-4.02,0.56-8.22-0.98-12.05c-0.61-1.77-1.8-3.28-3.37-4.31c-1.78-0.88-3.77-1.26-5.75-1.1
			c-3.48-0.12-6.96,0.38-10.27,1.48c-5.32,1.92-7.55,4.97-11.52,8.66c-4.84,4.45-13.69,12.58-24.88,13.39
			c-5,0.14-9.99-0.53-14.79-1.96c-3.8-1.01-4.89-1.77-9.45-3.35c-5.46-2.17-11.18-3.64-17-4.4c-11.03-0.42-19.99,9-23.25,14.55
			c-1.87,3.41-3.14,7.11-3.75,10.95C6.5,49.95,6.45,50.95,6.39,51.62z"/>
		<path id="Path_41" class="st3" d="M127.22,53.35c-0.11,0.72-0.33,1.67-0.6,2.92c-0.27,1.39-0.76,3.25-1.74,6.98
			c-1.47,5.4-3.37,11.78-5.32,17.84l0,0c-1.25,0.82-2.34,1.67-3.31,2.44c-3.91,3.25-7.39,7.6-14.4,9.09
			c-4.18,0.7-8.45,0.51-12.55-0.58c-9.44-1.6-18.96-2.72-28.52-3.35c-11.5-0.61-23.03,0.67-34.12,3.78
			c-4.02,0.96-7.71,2.06-11.14,3.2l0,0c-2.06-7.41-3.86-14.01-5.32-19.89c0.76-0.58,1.85-1.39,3.2-2.3
			c6.01-3.73,12.76-6.09,19.78-6.93c13.2-1.82,24.88,1.39,33.47,3.73c8.64,2.39,11.35,4.21,17.71,3.97
			c4.56-0.19,8.8-1.34,16.84-5.12c9.12-4.3,17.82-9.46,25.97-15.4"/>
		<path id="Path_42" class="st3" d="M18.67,106.47c2.88,8.6,6.44,16.97,10.65,25.01c0.65-0.33,1.85-0.91,3.48-1.58
			c17.93-7.32,31.94-0.33,55.2-3.25c5.11-0.66,10.16-1.71,15.1-3.16c2.28-3.92,4.29-8.22,4.29-8.22c1.55-3.37,2.93-6.82,4.12-10.34
			c0,0,1.52-4.21,3.58-10.33c-1.14,0.76-2.72,1.82-4.67,3.11c-2.23,1.7-4.64,3.15-7.17,4.35c-2.89,0.92-5.93,1.33-8.96,1.2
			c-4.9,0.02-9.79-0.39-14.61-1.2c-9.57-1.56-19.27-2.15-28.96-1.77c-7.63,0.4-15.2,1.56-22.6,3.44
			C24.65,104.61,21.55,105.52,18.67,106.47z"/>
		<path id="Path_43" class="st1" d="M33.88,139.28c1.03-0.63,2.1-1.19,3.2-1.67c3.39-1.45,6.95-2.45,10.59-2.97
			c10.05-1.29,19.88,2.3,33.09,1.82c4.79-0.19,9.54-0.89,14.18-2.1c1.82-1.64,3.46-3.46,4.89-5.45c1.22-1.7,2.3-3.51,3.2-5.4
			c-0.98,0.27-2.72,0.76-4.89,1.29c0,0-5.05,1.2-10.27,1.87c-13.64,1.72-35.91-4.64-55.2,3.25c-1.57,0.67-2.83,1.24-3.48,1.58
			C30.85,134.07,32.36,136.65,33.88,139.28z"/>
	</g>
</g>
</svg>
