<?xml version="1.0" encoding="utf-8"?>
<!-- Generator: Adobe Illustrator 26.2.1, SVG Export Plug-In . SVG Version: 6.00 Build 0)  -->
<svg version="1.1" id="Шар_1" xmlns="http://www.w3.org/2000/svg" xmlns:xlink="http://www.w3.org/1999/xlink" x="0px" y="0px"
	 viewBox="0 0 78.9 101.2" style="enable-background:new 0 0 78.9 101.2;" xml:space="preserve">
<style type="text/css">
	.st0{fill:#FFFFFF;stroke:#161615;stroke-width:3;stroke-miterlimit:10;}
	.st1{fill:#C7152C;stroke:#161615;stroke-miterlimit:10;}
	.st2{fill:#161615;stroke:#161615;stroke-miterlimit:10;}
	.st3{fill:none;stroke:#161615;stroke-width:2;stroke-miterlimit:10;}
	.st4{fill:none;stroke:#161615;stroke-width:0.7;stroke-miterlimit:10;}
</style>
<path id="Path_141" class="st0" d="M29.1,34.4c0.2,0.5,0.2,0.9,0.1,1.4c-0.3,0.9-1.1,1.3-2,1.8c-1.5,0.9-3.1,1.5-4.8,2
	c-2.4,0.8-3.6,1.2-4.1,1.5c-1.8,0.9-2.9,1.8-4,2.8c-5.7,5-8.4,8.2-10.6,11.4c-1.2,1.7-1.9,3.1-1.5,4.1c0.5,1,2.3,1.3,3.6,1.1
	c0.6-0.1,1.9-0.5,4.4-3.5c2-2.4,5.3-7.3,7.1-8.4l0.1,0c0.5-0.3,2.1-1.2,3.2-0.6c0.6,0.4,1,1,1.1,1.7c0.3,2.8,1.3,11.3,1.2,18.5
	c0,1.2,0,3.1-0.3,5.6c-0.3,2.6-0.7,5.2-1.3,7.8c-1.7,8.7-2.2,10-1.2,11.9c0.1,0.2,2.4,3.4,5,3.5c1.1,0,1.8-1,2.4-1.8
	c2.2-2.7,2.3-6.2,2.5-9.3c0.1-1.4,0-1.6,0.1-3c0.1-1.7,0.4-3.5,0.7-5.2c0.2-1.5,0.5-2.9,0.9-4.3c0.2-0.5,1.8-4,3.9-3.8
	c1.8,0.2,2.8,2.9,2.8,3c1,7.1,1.5,12.1,1.8,15.8c0,0,0.4,6.7,2.4,7.2l0.1,0c0.8,0.2,1.6,0.2,2.4,0c0.5-0.2,0.9-0.6,1.2-1.1
	c1.8-2.8,1.3-6.7,1.3-6.7c-0.3-11.9-0.8-20.8-1.6-27.7c0,0-1-8.2,2.1-12.4c1.2-1.6,2.8-2.7,2.8-2.7c1.7-1.1,2.6-1.1,4.2-1.5
	c4.2-1.2,6.8-5.1,9.7-9.4c1.4-2.1,1.2-2.3,2.9-4.7c1.5-2.1,2-2.5,4.6-5.8c3.7-4.7,4.6-6.3,4.3-8.1c-0.1-0.5-0.2-1.6-0.9-1.9
	c-0.9-0.5-2.6,0.6-6.8,5.1c-3.8,4.2-4.7,5.8-8,9.7c-5.1,5.9-7.4,7.1-8.5,7.4c-0.2,0-0.3,0.1-0.4,0.1c-2.7,0.7-5.6,0.3-8.2-0.9
	c-0.5-0.3-1-0.6-1.5-0.9c-0.6-0.4-1-1.1-1.1-1.8c-0.1-1.9,3-2.5,5.3-5c2.7-3,2.7-7.2,2.7-9.1c0-1.6,0-6.3-3.2-9.8
	c-3.5-3.9-9.8-5-15.8-2.9c-1.2,0.5-7.4,2.9-9.9,9.2c-1.2,2.8-1.4,5.8-0.7,8.8c0.3,1.6,1.1,3.1,2.2,4.4c0.9,1,2,1.8,3.2,2.4
	c1,0.3,1.9,0.9,2.6,1.7c0,0,0,0.1,0.1,0.1c0.2,0.3,0.4,0.5,0.4,0.6C28.5,33.1,28.8,33.7,29.1,34.4c0.1,0.2,0.1,0.4,0.2,0.7"/>
<path id="Path_142" class="st1" d="M37.9,23.6c0.6,0.8,1,1.7,1.3,2.7c0.3,0.6,0.3,1.3,0.2,1.9c-0.2,0.5-0.5,0.8-0.9,1.1
	c-0.5,0.2-1.1,0.3-1.7,0.1c-2-0.6-2.8-3.9-2.9-4.1"/>
<circle id="Ellipse_6" class="st2" cx="28.3" cy="16" r="0.9"/>
<ellipse id="Ellipse_7" class="st2" cx="39.4" cy="16.7" rx="1.1" ry="1.1"/>
<path id="Path_143" class="st3" d="M26.9,24c4,1.6,8.6,1.1,12-1.5l-1.4-1.6"/>
<line id="Line_4" class="st3" x1="39.3" y1="22.9" x2="40.5" y2="24.3"/>
<path id="Path_144" class="st4" d="M37.1,26.7c0.4,0.4,0.7,0.8,0.9,1.3c0.2,0.5,0.3,1,0.3,1.5"/>
</svg>
