<?xml version="1.0" encoding="utf-8"?>
<!-- Generator: Adobe Illustrator 26.2.1, SVG Export Plug-In . SVG Version: 6.00 Build 0)  -->
<svg version="1.1" id="Шар_1" xmlns="http://www.w3.org/2000/svg" xmlns:xlink="http://www.w3.org/1999/xlink" x="0px" y="0px"
	 viewBox="0 0 90.85 104.94" style="enable-background:new 0 0 90.85 104.94;" xml:space="preserve">
<style type="text/css">
	.st0{opacity:0.91;}
	.st1{fill:#004A98;stroke:#161615;stroke-width:3;stroke-miterlimit:10;}
	.st2{fill:#FFCA00;stroke:#161615;stroke-width:3;stroke-miterlimit:10;}
	.st3{fill:#FFFFFF;stroke:#161615;stroke-width:3;stroke-miterlimit:10;}
	.st4{fill:#161615;stroke:#161615;stroke-miterlimit:10;}
	.st5{fill:none;stroke:#161615;stroke-width:1.7;stroke-miterlimit:10;}
</style>
<g id="Group_62" transform="translate(-308.457 -147.374)" class="st0">
	<path id="Path_218" class="st1" d="M369.11,165.45c2.11-0.57,4.26-0.96,6.42-1.15c2.33-0.15,4.67-0.17,7.01-0.03
		c3.53,0.02,7.06-0.43,10.5-1.33c0.9-1.97,1.69-4.01,2.37-6.09c0.68-2.09,1.63-3.83,2.01-5.61c-4.08,1.69-8.35,2.67-12.68,2.91
		c-2.64,0.06-5.27,0.31-7.88,0.76c-2.44,0.48-4.83,1.21-7.15,2.18"/>
	<path id="Path_219" class="st2" d="M369.69,165.07c2.09-0.56,4.22-0.94,6.37-1.13c2.32-0.15,4.64-0.16,6.95-0.03
		c3.51,0.01,7.01-0.45,10.42-1.37c-0.38,1.18-0.55,2.43-0.53,3.69c0.08,2.34,0.84,4.59,2.17,6.37c-8.06,1.42-12.56,1.38-15.2,1.03
		c-3.59-0.51-7.23-0.32-10.77,0.57"/>
	<path id="Path_220" class="st3" d="M367.91,184.67c0.76-9.39,1.53-18.78,2.29-28.17l0.1-1.29"/>
	<path id="Path_221" class="st3" d="M365.83,210.71c0.4-5.76,0.79-11.52,1.19-17.29"/>
	<path id="Path_222" class="st3" d="M332.97,184.38c0.15,0.49,0.17,1.02,0.07,1.52c-0.23,0.93-1.07,1.38-1.89,1.95
		c-1.43,0.92-2.97,1.65-4.59,2.17c-1.34,0.47-2.65,1.01-3.93,1.62c-1.43,0.84-2.73,1.88-3.87,3.09c-0.9,0.78-1.67,1.7-2.28,2.72
		c-0.08,0.17-0.17,0.38-0.33,0.72c0,0-0.14,0.29-0.27,0.56c-0.49,0.92-1.05,1.78-1.7,2.59c-1.56,1.94-2.87,4.06-3.9,6.33
		c-0.13,0.31-0.18,0.42-0.24,0.6c-0.37,1.06-0.97,2.78-0.23,4.12c0.79,1.18,2.23,1.76,3.61,1.45c2.04-0.37,2.51-2.81,3.72-4.98
		c2.61-4.66,2.06-7.31,4.58-9.13c0.3-0.21,1.99-1.42,3.18-0.72c0.58,0.46,0.94,1.14,1.02,1.88c0.59,2.46,0.74,5,0.47,7.51
		c-0.92,5.08,0.43,7.61,0.64,12.63c0.06,2.02-0.04,4.04-0.3,6.04c-0.2,2.25-0.47,4.05-1.23,8.43c-1.38,7.89-1.95,10.2-1.55,11.96
		c0.07,0.35,0.18,0.68,0.35,0.99c1.23,2.32,5.34,3.41,7.03,1.86c1.67-1.52,0.95-5.54,1.52-9.57c0.4-2.82,0.62-1.91,2.38-9.82
		c0.27-1.3,0.61-2.59,1.02-3.85c0.6-1.81,1.95-5.9,3.41-5.98c1.32-0.07,2.47,3.18,2.71,3.87c2.41,6.82,0.13,12.98,1.02,20.41
		c0,0,0.58,4.79,2.34,5.37l0.07,0.02c0.75,0.19,1.54,0.19,2.29,0c0.43-0.11,2.88-1.44,3.35-9.89c0.32-5.64-0.61-7.97-1.99-19.35
		c-0.69-5.71-0.72-7.28-0.45-9.22c0.5-7.28,5.29-13.56,12.18-15.97c1.64-0.72,1.8-0.57,5.33-1.92c3.83-1.46,5.77-2.22,6.76-3.34
		c1.98-2.26,3.01-6.27,1.55-8c-1.17-1.39-3.61-0.89-4.53-0.7c-3.09,0.63-3.63,2.53-7.78,4.63c-1.44,0.72-2.95,1.27-4.51,1.66
		c-3.28,0.81-6.82,1.68-9.43-0.45c-1.86-1.6-2.81-4.01-2.55-6.45c0.16-1.14,0.56-1.48,1.9-3.73c2.28-3.82,3.76-6.36,4-9.32
		c0.11-1.67-0.14-3.35-0.73-4.92c-1.83-5.24-7.51-10.11-14.17-9.81c-5.56,0.34-10.43,3.83-12.55,8.98c-1.17,3.03-1.41,6.34-0.7,9.51
		c0.31,1.74,1.05,3.37,2.15,4.75c0.87,1.03,1.9,1.91,3.06,2.6c0.98,0.39,1.83,1.03,2.48,1.86l0.08,0.12
		c0.14,0.22,0.25,0.4,0.32,0.52l0.06,0.11C332.32,183,332.68,183.68,332.97,184.38z"/>
	<ellipse id="Ellipse_15" class="st4" cx="332.81" cy="166.04" rx="1.14" ry="1.26"/>
	<ellipse id="Ellipse_16" class="st4" cx="344.09" cy="163.52" rx="1" ry="1.1"/>
	<path id="Path_223" class="st5" d="M343.3,175.41c-0.95,0.77-2.2,1.07-3.4,0.83c-1.47-0.2-3.47-1.17-3.48-2.33
		c-0.01-1.1,1.77-1.89,3.48-2.65c1.95-0.87,3.87-1.72,4.67-0.81C345.42,171.41,344.81,174.1,343.3,175.41z"/>
</g>
</svg>
