<?xml version="1.0" encoding="utf-8"?>
<!-- Generator: Adobe Illustrator 26.2.1, SVG Export Plug-In . SVG Version: 6.00 Build 0)  -->
<svg version="1.1" id="Шар_1" xmlns="http://www.w3.org/2000/svg" xmlns:xlink="http://www.w3.org/1999/xlink" x="0px" y="0px"
	 viewBox="0 0 66.78 96.95" style="enable-background:new 0 0 66.78 96.95;" xml:space="preserve">
<style type="text/css">
	.st0{fill:none;stroke:#1D1E1C;stroke-width:3;stroke-miterlimit:10;}
	.st1{fill:none;stroke:#1D1E1C;stroke-width:2;stroke-miterlimit:10;}
</style>
<g id="Group_189" transform="translate(-298.382 -265.853)">
	<path id="Path_133" class="st0" d="M346.21,324.57c-0.86,3.12-0.78,6.01-0.63,11.78c0.1,3.61,0.45,6.93,0.5,13.29
		c0.04,4.89-0.13,8.32-2.13,9.4c-0.95,0.39-1.97,0.61-3.01,0.63c-1.3,0.25-2.63,0.17-3.89-0.25c-2.78-1.35-3-6.97-2.76-9.78
		c0.18-2.09,0.66-3.1,0.38-5.39c-0.19-1.51-0.44-3.33-1.88-4.26c-0.97-0.61-2.17-0.75-3.26-0.37c-2.64,0.95-3.32,5.04-3.64,6.89
		c-0.57,3.39,0.33,3.93-0.5,7.14c-0.34,1.9-1.26,3.65-2.63,5.01c-1.03,0.93-2.28,1.57-3.63,1.88c-0.57,0.16-1.17,0.2-1.75,0.13
		c-1.13-0.26-2.14-0.87-2.88-1.76c-2.68-3.01-0.75-11.28-0.75-11.28c1.5-6.45,3.37-7.7,6.39-17.05c1-3.08,1.73-5.84,0.75-8.9
		c-0.25-0.77-1.56-4.56-4.01-4.89c-2.4-0.32-3.16,3.05-7.39,4.64c-2.35,0.88-6.26,1.4-7.89-0.5c-2-2.32,0.3-7.17,1.63-9.27
		c0.25-0.4,4.72-7.26,11.53-7.65c2.18-0.12,4.22,0.44,6.02-1c0.98-0.77,1.61-1.9,1.75-3.13c0.1-1.74-1.19-2.56-3.38-5.51
		c-1.6-1.95-2.87-4.16-3.76-6.52c-0.69-2.06-0.95-4.23-0.75-6.39c0.31-3.17,1.63-6.15,3.76-8.52c2.69-2.91,6.44-4.62,10.4-4.76
		c2.58-0.01,5.13,0.64,7.39,1.88c2.4,1.02,4.47,2.66,6.02,4.76c0.86,1.22,1.49,2.57,1.88,4.01c0.35,1.33,0.62,3.36-0.88,9.15
		c-1.26,4.84-1.88,7.26-3.01,9.78c-0.92,2.06-2.14,4.31-1.25,6.27c0.27,0.65,0.76,1.18,1.38,1.51c1.09,0.36,2.28,0.22,3.26-0.38
		c3.29-1.57,6.11-4.87,8.4-7.52c4.07-4.72,5.22-5.96,6.89-5.89c1.41,0.13,2.67,0.92,3.4,2.13c0.61,0.99,1.77,3.84-4.15,13.42
		C351.64,317.76,348.03,317.94,346.21,324.57z"/>
	<path id="Path_134" class="st1" d="M336.93,286.72c-0.71,1.02-1.56,1.95-2.51,2.76c-2.53,2.07-5.64,3.3-8.9,3.51"/>
	<circle id="Ellipse_4" cx="322.87" cy="283" r="1.66"/>
	<ellipse id="Ellipse_5" transform="matrix(0.866 -0.5 0.5 0.866 -94.8978 204.4459)" cx="334.05" cy="279.3" rx="2.19" ry="1.86"/>
</g>
</svg>
